<svg id="svg" version="1.1" xmlns="http://www.w3.org/2000/svg" xmlns:xlink="http://www.w3.org/1999/xlink" width="400" height="400" viewBox="0, 0, 400,400"><g id="svgg"><path id="path0" d="M152.000 136.025 C 150.130 136.429,147.700 136.952,146.600 137.187 C 145.500 137.423,141.720 138.172,138.200 138.851 C 134.680 139.531,131.620 140.223,131.400 140.389 C 130.020 141.431,126.195 140.971,127.000 139.860 C 127.106 139.713,126.979 139.775,126.717 139.997 C 126.455 140.218,125.736 140.400,125.120 140.400 C 124.504 140.400,124.000 140.580,124.000 140.800 C 124.000 141.020,123.640 141.200,123.200 141.200 C 122.760 141.200,122.400 141.380,122.400 141.600 C 122.400 141.820,121.860 142.000,121.200 142.000 C 120.540 142.000,120.000 142.166,120.000 142.368 C 120.000 142.571,119.460 142.855,118.800 143.000 C 118.140 143.145,117.600 143.429,117.600 143.632 C 117.600 143.834,117.240 144.000,116.800 144.000 C 116.360 144.000,116.000 144.158,116.000 144.351 C 116.000 144.545,115.460 144.927,114.800 145.200 C 114.140 145.473,113.600 145.855,113.600 146.049 C 113.600 146.242,113.332 146.400,113.003 146.400 C 112.675 146.400,112.182 146.760,111.907 147.200 C 111.632 147.640,111.181 148.000,110.904 148.000 C 110.627 148.000,110.400 148.158,110.400 148.351 C 110.400 148.544,109.050 150.078,107.400 151.761 C 105.750 153.443,104.400 155.013,104.400 155.249 C 104.400 155.486,103.860 156.183,103.200 156.800 C 102.540 157.417,102.000 158.041,102.000 158.188 C 102.000 158.336,101.460 159.241,100.800 160.200 C 100.140 161.159,99.600 162.227,99.600 162.572 C 99.600 162.917,99.464 163.200,99.297 163.200 C 98.998 163.200,98.000 165.985,98.000 166.822 C 98.000 168.844,96.795 168.376,93.401 165.035 C 91.510 163.174,89.117 161.104,88.082 160.436 C 87.047 159.768,85.983 159.036,85.717 158.811 C 85.451 158.585,84.956 158.400,84.617 158.400 C 84.278 158.400,84.000 158.220,84.000 158.000 C 84.000 157.780,83.651 157.600,83.224 157.600 C 82.797 157.600,82.336 157.420,82.200 157.200 C 82.064 156.980,81.513 156.800,80.976 156.800 C 80.439 156.800,80.000 156.620,80.000 156.400 C 80.000 156.180,79.460 156.000,78.800 156.000 C 78.140 156.000,77.600 155.820,77.600 155.600 C 77.600 155.380,77.060 155.200,76.400 155.200 C 75.740 155.200,75.200 155.020,75.200 154.800 C 75.200 154.580,74.581 154.400,73.824 154.400 C 73.067 154.400,72.336 154.220,72.200 154.000 C 72.049 153.755,68.863 153.600,63.976 153.600 C 58.925 153.600,56.000 153.747,56.000 154.000 C 56.000 154.220,55.280 154.400,54.400 154.400 C 53.520 154.400,52.800 154.580,52.800 154.800 C 52.800 155.020,52.001 155.200,51.024 155.200 C 50.047 155.200,49.136 155.380,49.000 155.600 C 48.864 155.820,48.054 156.000,47.200 156.000 C 46.346 156.000,45.536 156.180,45.400 156.400 C 45.264 156.620,44.083 156.800,42.776 156.800 C 41.459 156.800,40.400 156.978,40.400 157.200 C 40.400 157.420,39.365 157.603,38.100 157.606 C 36.467 157.610,35.974 157.725,36.400 158.000 C 36.830 158.278,36.410 158.389,34.920 158.394 C 32.393 158.401,28.800 159.129,28.800 159.633 C 28.800 159.835,28.445 160.000,28.010 160.000 C 25.907 160.000,25.345 168.278,27.314 170.247 C 27.471 170.405,27.600 170.889,27.600 171.323 C 27.600 172.179,29.211 175.716,29.700 175.933 C 29.865 176.007,30.000 176.412,30.000 176.833 C 30.000 177.255,30.180 177.600,30.400 177.600 C 30.620 177.600,30.800 177.920,30.800 178.312 C 30.800 178.703,31.160 179.283,31.600 179.600 C 32.040 179.917,32.403 180.362,32.407 180.588 C 32.429 181.794,38.881 188.478,41.800 190.318 C 42.900 191.012,44.017 191.764,44.283 191.989 C 44.549 192.215,44.871 192.400,45.000 192.400 C 45.128 192.400,45.620 192.760,46.092 193.200 C 46.564 193.640,47.187 194.000,47.475 194.000 C 47.764 194.000,48.000 194.180,48.000 194.400 C 48.000 194.620,48.349 194.800,48.776 194.800 C 49.203 194.800,49.664 194.980,49.800 195.200 C 49.936 195.420,50.487 195.600,51.024 195.600 C 51.561 195.600,52.000 195.780,52.000 196.000 C 52.000 196.220,52.540 196.400,53.200 196.400 C 53.860 196.400,54.400 196.580,54.400 196.800 C 54.400 197.020,55.120 197.200,56.000 197.200 C 56.880 197.200,57.600 197.380,57.600 197.600 C 57.600 197.820,58.320 198.000,59.200 198.000 C 60.080 198.000,60.800 198.180,60.800 198.400 C 60.800 198.650,63.200 198.800,67.200 198.800 C 71.200 198.800,73.600 198.650,73.600 198.400 C 73.600 198.180,74.500 198.000,75.600 198.000 C 76.700 198.000,77.600 197.820,77.600 197.600 C 77.600 197.380,78.500 197.200,79.600 197.200 C 80.700 197.200,81.600 197.020,81.600 196.800 C 81.600 196.580,82.399 196.400,83.376 196.400 C 84.353 196.400,85.264 196.220,85.400 196.000 C 85.536 195.780,86.796 195.600,88.200 195.600 C 89.604 195.600,90.864 195.420,91.000 195.200 C 91.136 194.980,91.946 194.800,92.800 194.800 C 93.654 194.800,94.464 194.620,94.600 194.400 C 95.301 193.266,98.000 194.256,98.000 195.647 C 98.000 196.024,98.135 196.393,98.300 196.467 C 98.465 196.540,99.023 197.435,99.540 198.455 C 100.255 199.867,100.851 200.456,102.037 200.922 C 103.523 201.505,104.145 202.356,104.471 204.249 C 104.542 204.662,104.697 205.090,104.816 205.200 C 104.934 205.310,106.086 206.930,107.375 208.800 C 121.047 228.638,146.749 249.408,166.055 256.219 C 166.914 256.523,168.198 257.032,168.908 257.352 C 170.334 257.993,175.878 259.971,179.000 260.952 C 185.158 262.886,196.369 265.123,203.400 265.820 C 206.551 266.132,207.200 266.479,207.200 267.855 C 207.200 270.835,210.154 283.567,211.474 286.281 C 216.233 296.058,225.850 298.071,242.200 292.712 C 257.879 287.573,271.670 270.841,272.376 256.102 C 272.389 255.828,273.255 255.217,274.300 254.743 C 279.589 252.345,281.656 251.310,285.903 248.934 C 293.290 244.801,301.340 239.202,307.582 233.856 C 313.075 229.152,326.400 214.774,326.400 213.552 C 326.400 212.724,328.484 209.946,328.966 210.131 C 329.536 210.350,331.600 208.748,331.600 208.087 C 331.600 207.856,331.747 207.607,331.928 207.533 C 332.393 207.344,335.600 202.531,335.600 202.022 C 335.600 201.790,335.780 201.600,336.000 201.600 C 336.220 201.600,336.400 201.330,336.400 201.000 C 336.400 200.670,336.580 200.400,336.800 200.400 C 337.020 200.400,337.200 200.040,337.200 199.600 C 337.200 199.160,337.380 198.800,337.600 198.800 C 337.820 198.800,338.000 198.603,338.000 198.362 C 338.000 197.051,339.683 195.600,341.204 195.600 C 342.056 195.600,342.864 195.420,343.000 195.200 C 343.136 194.980,344.036 194.800,345.000 194.800 C 345.964 194.800,346.864 194.620,347.000 194.400 C 347.136 194.180,347.957 194.000,348.824 194.000 C 349.691 194.000,350.400 193.820,350.400 193.600 C 350.400 193.380,351.120 193.200,352.000 193.200 C 352.880 193.200,353.600 193.020,353.600 192.800 C 353.600 192.580,353.960 192.400,354.400 192.400 C 354.840 192.400,355.200 192.240,355.200 192.043 C 355.200 191.847,355.605 191.582,356.100 191.454 C 357.146 191.184,360.400 188.303,360.400 187.646 C 360.400 187.401,360.580 187.200,360.800 187.200 C 361.020 187.200,361.200 186.840,361.200 186.400 C 361.200 185.960,361.380 185.600,361.600 185.600 C 361.820 185.600,362.000 185.240,362.000 184.800 C 362.000 184.360,362.180 184.000,362.400 184.000 C 362.620 184.000,362.800 183.100,362.800 182.000 C 362.800 180.900,362.980 180.000,363.200 180.000 C 363.420 180.000,363.600 179.550,363.600 179.000 C 363.600 178.450,363.420 178.000,363.200 178.000 C 362.980 178.000,362.800 177.100,362.800 176.000 C 362.800 174.900,362.620 174.000,362.400 174.000 C 362.180 174.000,362.000 173.640,362.000 173.200 C 362.000 172.760,361.820 172.400,361.600 172.400 C 361.380 172.400,361.200 172.040,361.200 171.600 C 361.200 171.160,361.020 170.800,360.800 170.800 C 360.580 170.800,360.400 170.524,360.400 170.187 C 360.400 169.440,358.201 167.211,356.697 166.432 C 356.094 166.120,355.600 165.715,355.600 165.532 C 355.600 165.350,355.150 165.200,354.600 165.200 C 354.050 165.200,353.600 165.020,353.600 164.800 C 353.600 164.580,353.186 164.400,352.680 164.400 C 350.456 164.400,349.606 163.553,349.603 161.333 C 349.601 160.197,349.436 159.207,349.236 159.133 C 349.035 159.060,348.821 158.280,348.759 157.400 C 348.697 156.520,348.321 155.322,347.923 154.738 C 347.525 154.154,347.200 153.479,347.200 153.238 C 347.200 152.997,347.020 152.800,346.800 152.800 C 346.580 152.800,346.400 152.522,346.400 152.182 C 346.400 151.842,345.950 151.114,345.400 150.564 C 344.850 150.014,344.400 149.421,344.400 149.247 C 344.400 148.410,338.972 143.600,338.027 143.600 C 337.792 143.600,337.240 143.240,336.800 142.800 C 336.360 142.360,335.730 142.000,335.400 142.000 C 335.070 142.000,334.800 141.820,334.800 141.600 C 334.800 141.380,334.260 141.200,333.600 141.200 C 332.940 141.200,332.400 141.020,332.400 140.800 C 332.400 140.580,331.871 140.400,331.224 140.400 C 330.577 140.400,329.936 140.220,329.800 140.000 C 329.652 139.761,327.055 139.600,323.353 139.600 C 319.321 139.600,317.239 139.740,317.400 140.000 C 317.553 140.248,316.812 140.400,315.447 140.400 C 314.237 140.400,313.136 140.580,313.000 140.800 C 312.864 141.020,312.054 141.200,311.200 141.200 C 310.346 141.200,309.536 141.380,309.400 141.600 C 309.264 141.820,308.456 142.000,307.603 142.000 C 306.405 142.000,305.996 142.181,305.800 142.800 C 305.467 143.848,304.411 144.385,302.746 144.353 C 302.006 144.339,296.540 145.319,290.600 146.532 C 284.660 147.745,278.270 149.038,276.400 149.406 C 274.530 149.774,268.950 150.893,264.000 151.893 C 259.050 152.894,254.550 153.798,254.000 153.904 C 253.450 154.009,239.590 156.779,223.200 160.059 C 206.810 163.339,190.160 166.657,186.200 167.431 C 182.240 168.206,175.940 169.468,172.200 170.235 C 168.460 171.003,163.870 171.905,162.000 172.239 C 149.311 174.508,149.890 174.486,151.519 172.631 C 157.635 165.666,160.870 156.564,160.916 146.200 C 160.962 135.609,159.844 134.333,152.000 136.025 M153.926 146.032 C 154.316 155.194,149.113 166.329,141.689 172.223 C 135.976 176.758,131.884 178.393,120.661 180.628 C 115.787 181.598,110.540 182.664,109.000 182.996 C 103.490 184.185,103.394 184.092,103.734 177.888 C 104.275 168.010,110.163 158.194,119.011 152.418 C 123.919 149.214,128.324 147.717,138.000 145.963 C 138.990 145.784,140.610 145.456,141.600 145.236 C 147.320 143.962,152.911 142.897,153.400 142.989 C 153.620 143.030,153.857 144.400,153.926 146.032 M330.949 149.117 C 339.201 152.979,343.699 162.870,340.804 170.789 C 339.807 173.518,339.967 173.653,343.400 172.979 C 347.723 172.131,350.432 172.232,352.019 173.301 C 356.007 175.989,355.912 181.943,351.838 184.612 C 350.920 185.213,347.216 186.062,338.800 187.599 C 336.270 188.060,333.435 188.610,332.500 188.819 C 328.356 189.747,322.865 190.858,314.800 192.400 C 307.098 193.872,305.940 194.107,301.100 195.175 C 300.165 195.382,297.805 195.864,295.856 196.247 C 291.460 197.111,290.691 197.670,290.691 200.000 C 290.691 202.856,292.321 203.698,296.123 202.807 C 299.908 201.919,320.774 197.873,323.000 197.595 C 324.320 197.430,325.885 197.167,326.477 197.010 C 329.040 196.331,328.817 197.016,324.261 203.800 C 312.967 220.617,296.223 235.440,277.686 245.032 C 272.516 247.707,272.544 247.706,272.188 245.100 C 272.030 243.945,271.718 242.550,271.496 242.000 C 271.273 241.450,270.956 240.280,270.791 239.400 C 268.238 225.769,267.438 224.142,264.027 225.652 C 261.902 226.593,261.765 227.691,262.998 233.898 C 263.600 236.924,264.262 240.300,264.470 241.400 C 268.610 263.299,255.564 283.033,234.200 287.188 C 232.880 287.445,231.149 287.823,230.354 288.027 C 223.155 289.882,218.488 286.519,216.733 278.215 C 213.651 263.626,213.343 258.810,215.196 254.200 C 218.968 244.815,225.425 238.840,234.200 236.617 C 239.472 235.282,239.920 230.000,234.762 230.000 C 223.470 230.000,210.367 243.097,207.399 257.350 L 207.160 258.499 204.280 258.230 C 172.007 255.207,139.560 237.455,118.677 211.396 C 113.703 205.190,105.589 192.739,105.603 191.335 C 105.609 190.752,110.869 189.415,118.800 187.980 C 119.790 187.801,124.110 186.934,128.400 186.054 C 132.690 185.173,140.070 183.715,144.800 182.813 C 149.530 181.911,154.030 181.015,154.800 180.823 C 156.883 180.302,159.470 179.788,167.000 178.396 C 170.740 177.705,174.353 176.973,175.028 176.770 C 175.704 176.566,176.818 176.400,177.505 176.400 C 178.191 176.400,178.864 176.220,179.000 176.000 C 179.136 175.780,179.809 175.600,180.495 175.600 C 181.182 175.600,182.296 175.431,182.972 175.224 C 183.647 175.017,185.190 174.649,186.400 174.406 C 194.581 172.761,203.275 171.060,204.800 170.805 C 207.079 170.424,218.476 168.117,220.600 167.607 C 221.480 167.395,225.980 166.502,230.600 165.623 C 235.220 164.743,239.900 163.829,241.000 163.592 C 242.100 163.355,243.720 163.004,244.600 162.813 C 246.746 162.346,254.854 160.760,261.200 159.566 C 262.410 159.338,263.953 158.983,264.628 158.776 C 265.304 158.569,266.281 158.400,266.800 158.400 C 267.319 158.400,268.296 158.231,268.972 158.024 C 269.647 157.817,271.190 157.450,272.400 157.209 C 283.309 155.031,307.372 150.237,308.800 149.958 C 309.790 149.764,312.760 149.160,315.400 148.616 C 322.245 147.204,327.201 147.364,330.949 149.117 M71.000 162.073 C 82.110 164.440,91.152 171.675,95.396 181.592 C 97.127 185.636,97.528 185.273,89.600 186.839 C 85.154 187.718,84.079 187.932,78.000 189.154 C 58.795 193.013,44.564 186.887,36.650 171.353 C 34.173 166.490,34.195 166.475,47.800 163.970 C 48.900 163.768,50.610 163.419,51.600 163.196 C 60.073 161.286,65.761 160.957,71.000 162.073 M266.685 200.921 C 261.402 204.119,263.113 212.125,269.204 212.710 C 273.576 213.130,276.400 210.719,276.400 206.568 C 276.400 201.242,271.173 198.204,266.685 200.921 " stroke="none" fill="#8a8d8e" fill-rule="evenodd"></path><path id="path1" d="M207.600 102.252 C 184.674 103.960,163.044 112.493,145.122 126.900 C 139.048 131.782,130.919 140.000,132.163 140.000 C 132.458 140.000,144.565 137.638,146.200 137.261 C 159.397 134.221,159.951 134.405,160.809 142.097 C 162.012 152.888,158.384 164.812,151.519 172.631 C 149.890 174.486,149.311 174.508,162.000 172.239 C 163.870 171.905,168.460 171.003,172.200 170.235 C 175.940 169.468,182.240 168.206,186.200 167.431 C 197.090 165.302,252.864 154.146,257.200 153.230 C 259.290 152.789,263.880 151.865,267.400 151.176 C 270.920 150.488,276.860 149.303,280.600 148.543 C 284.340 147.783,290.640 146.526,294.600 145.750 C 298.560 144.975,301.963 144.181,302.163 143.987 C 302.680 143.484,300.271 140.636,294.216 134.596 C 271.459 111.891,239.316 99.889,207.600 102.252 M104.005 210.700 C 104.034 243.085,116.694 271.960,140.457 293.839 C 149.121 301.816,162.758 310.368,173.200 314.372 C 175.070 315.089,176.960 315.832,177.400 316.021 C 181.729 317.889,191.874 320.381,200.000 321.574 C 263.423 330.880,322.959 282.607,326.631 218.900 C 326.962 213.159,326.903 213.115,324.000 216.899 C 321.927 219.601,310.671 231.231,307.582 233.863 C 301.194 239.304,293.279 244.807,285.903 248.934 C 281.656 251.310,279.589 252.345,274.300 254.743 C 273.255 255.217,272.389 255.828,272.376 256.102 C 271.670 270.841,257.879 287.573,242.200 292.712 C 225.850 298.071,216.233 296.058,211.474 286.281 C 210.154 283.567,207.200 270.835,207.200 267.855 C 207.200 266.479,206.551 266.132,203.400 265.820 C 196.369 265.123,185.158 262.886,179.000 260.952 C 175.878 259.971,170.334 257.993,168.908 257.352 C 168.198 257.032,166.914 256.523,166.055 256.219 C 146.665 249.378,120.206 227.931,107.200 208.512 C 104.155 203.965,103.999 204.072,104.005 210.700 " stroke="none" fill="#09b7ed" fill-rule="evenodd"></path><path id="path2" d="M130.400 140.225 C 129.105 140.715,129.079 140.757,130.051 140.777 C 130.629 140.790,131.326 140.530,131.600 140.200 C 131.874 139.870,132.031 139.621,131.949 139.648 C 131.867 139.674,131.170 139.934,130.400 140.225 M127.226 140.631 C 127.486 140.944,127.957 141.200,128.273 141.200 C 129.077 141.200,128.584 140.541,127.583 140.280 C 126.903 140.102,126.839 140.165,127.226 140.631 M150.200 143.456 C 148.660 143.755,146.500 144.187,145.400 144.417 C 144.300 144.647,142.633 144.979,141.696 145.155 C 140.125 145.450,138.934 146.000,139.868 146.000 C 140.089 146.000,142.864 145.461,146.035 144.803 C 154.135 143.122,153.764 143.060,153.428 146.031 C 152.792 151.653,149.638 158.072,145.082 163.017 C 138.870 169.758,132.915 172.646,120.607 174.886 C 116.434 175.645,115.117 175.905,111.100 176.763 C 104.717 178.126,104.235 178.115,103.901 176.600 C 103.805 176.160,103.702 177.283,103.673 179.094 C 103.594 184.098,103.662 184.148,109.000 182.996 C 110.540 182.664,115.787 181.598,120.661 180.628 C 131.884 178.393,135.976 176.758,141.689 172.223 C 149.113 166.329,154.316 155.194,153.926 146.032 C 153.782 142.643,153.916 142.736,150.200 143.456 M305.200 143.094 C 305.200 143.328,304.525 143.700,303.700 143.919 C 302.480 144.243,302.391 144.325,303.224 144.359 C 304.368 144.405,305.963 143.429,305.499 142.966 C 305.335 142.801,305.200 142.859,305.200 143.094 M135.800 146.400 C 134.706 146.870,136.533 146.870,138.000 146.400 C 138.975 146.088,138.970 146.079,137.800 146.068 C 137.140 146.062,136.240 146.211,135.800 146.400 M129.886 147.635 C 120.285 149.958,111.613 156.768,107.265 165.400 C 105.773 168.362,103.985 173.620,104.044 174.871 C 104.069 175.392,104.311 174.923,104.596 173.800 C 108.016 160.339,116.917 151.503,130.600 147.989 C 133.020 147.367,134.550 146.864,134.000 146.870 C 133.450 146.877,131.599 147.221,129.886 147.635 M315.400 148.616 C 312.760 149.160,309.790 149.764,308.800 149.958 C 305.728 150.559,274.724 156.744,272.400 157.220 C 268.434 158.031,268.195 158.097,268.629 158.259 C 269.117 158.441,290.307 154.354,297.000 152.786 C 306.940 150.458,322.058 147.918,324.795 148.116 C 336.138 148.938,343.745 159.933,340.385 170.648 C 339.245 174.282,339.190 174.232,343.479 173.445 C 350.467 172.162,353.232 173.173,354.359 177.422 C 355.647 182.279,353.064 184.395,343.600 186.238 C 340.410 186.860,338.073 187.425,338.407 187.495 C 339.448 187.714,350.803 185.290,351.800 184.637 C 355.911 181.943,356.026 176.001,352.019 173.301 C 350.432 172.232,347.723 172.131,343.400 172.979 C 339.967 173.653,339.807 173.518,340.804 170.789 C 342.966 164.874,340.986 157.388,336.000 152.633 C 330.840 147.711,325.158 146.603,315.400 148.616 M264.400 158.818 C 263.850 159.001,262.410 159.337,261.200 159.565 C 254.362 160.855,246.671 162.361,244.600 162.817 C 243.720 163.011,242.402 163.283,241.671 163.423 C 240.941 163.562,240.427 163.760,240.530 163.863 C 240.721 164.055,267.666 158.846,267.967 158.559 C 268.268 158.271,265.421 158.478,264.400 158.818 M60.301 161.577 C 58.817 161.735,57.467 162.007,57.301 162.182 C 57.136 162.357,58.080 162.367,59.400 162.204 C 70.609 160.822,81.029 164.449,88.800 172.438 C 91.671 175.389,94.331 179.437,93.761 179.985 C 93.359 180.370,76.185 183.894,71.800 184.491 C 59.492 186.167,47.111 180.640,39.046 169.869 C 36.975 167.104,37.095 166.670,40.100 166.045 C 41.475 165.760,43.050 165.377,43.600 165.194 C 46.827 164.125,39.630 165.472,35.900 166.636 C 33.135 167.498,40.048 178.527,46.400 183.386 C 55.209 190.124,64.622 191.842,78.000 189.154 C 84.079 187.932,85.154 187.718,89.600 186.839 C 97.528 185.273,97.127 185.636,95.396 181.592 C 89.676 168.228,75.228 159.988,60.301 161.577 M53.200 162.799 C 52.650 162.983,51.480 163.262,50.600 163.418 C 49.720 163.575,49.185 163.771,49.411 163.855 C 49.637 163.939,51.437 163.664,53.411 163.244 C 55.618 162.774,56.461 162.477,55.600 162.472 C 54.830 162.467,53.750 162.614,53.200 162.799 M45.600 164.400 C 44.628 164.711,44.633 164.720,45.800 164.720 C 46.460 164.720,47.450 164.576,48.000 164.400 C 48.972 164.089,48.967 164.080,47.800 164.080 C 47.140 164.080,46.150 164.224,45.600 164.400 M236.800 164.400 L 235.800 164.720 236.800 164.713 C 237.350 164.709,238.340 164.568,239.000 164.400 L 240.200 164.095 239.000 164.087 C 238.340 164.083,237.350 164.224,236.800 164.400 M232.200 165.262 C 231.320 165.472,228.260 166.103,225.400 166.665 C 222.540 167.227,219.210 167.881,218.000 168.119 C 216.790 168.357,216.098 168.617,216.463 168.698 C 217.028 168.823,221.359 168.039,231.600 165.957 C 232.810 165.711,234.250 165.364,234.800 165.187 L 235.800 164.863 234.800 164.872 C 234.250 164.876,233.080 165.052,232.200 165.262 M210.400 169.658 C 208.530 170.082,206.100 170.583,205.000 170.770 C 201.244 171.410,188.203 174.008,186.754 174.404 C 185.958 174.622,184.878 174.803,184.354 174.806 C 183.829 174.809,183.130 175.000,182.800 175.230 C 182.054 175.751,181.270 175.888,198.000 172.571 C 205.370 171.109,212.300 169.737,213.400 169.522 C 214.500 169.306,215.475 169.055,215.567 168.965 C 215.920 168.615,213.658 168.919,210.400 169.658 M178.984 176.026 C 178.805 176.315,179.212 176.362,180.261 176.172 C 182.303 175.803,182.455 175.600,180.690 175.600 C 179.897 175.600,179.129 175.791,178.984 176.026 M175.200 176.812 C 174.781 177.091,175.142 177.133,176.400 176.950 C 178.641 176.625,178.960 176.398,177.167 176.406 C 176.415 176.409,175.530 176.592,175.200 176.812 M166.200 178.443 C 160.928 179.524,157.429 180.230,155.253 180.654 C 154.732 180.756,154.398 180.932,154.511 181.045 C 154.715 181.248,173.643 177.659,173.967 177.356 C 174.386 176.964,171.334 177.391,166.200 178.443 M147.400 182.221 C 142.670 183.220,121.240 187.527,118.600 188.010 C 110.748 189.445,105.609 190.760,105.603 191.335 C 105.589 192.739,113.703 205.190,118.677 211.396 C 139.560 237.455,172.007 255.207,204.280 258.230 L 207.160 258.499 207.399 257.350 C 210.367 243.097,223.470 230.000,234.762 230.000 C 239.920 230.000,239.472 235.282,234.200 236.617 C 225.425 238.840,218.968 244.815,215.196 254.200 C 213.343 258.810,213.651 263.626,216.733 278.215 C 218.488 286.519,223.155 289.882,230.354 288.027 C 231.149 287.823,232.880 287.445,234.200 287.188 C 255.564 283.033,268.610 263.299,264.470 241.400 C 264.262 240.300,263.600 236.924,262.998 233.898 C 261.765 227.691,261.902 226.593,264.027 225.652 C 265.636 224.940,267.314 225.623,268.158 227.335 C 268.682 228.397,268.783 228.460,268.791 227.729 C 268.811 225.830,265.609 224.361,263.655 225.372 C 261.120 226.682,261.103 227.200,263.244 237.722 C 265.893 250.742,264.976 256.083,258.435 265.737 C 252.553 274.416,244.381 279.406,232.150 281.786 C 220.369 284.079,217.370 280.789,214.750 262.702 C 213.204 252.029,225.477 236.800,235.624 236.800 C 236.746 236.800,238.800 234.613,238.800 233.420 C 238.800 230.686,236.752 228.966,234.051 229.433 C 223.793 231.203,213.627 239.458,209.470 249.392 C 207.875 253.204,208.744 252.950,200.600 251.983 C 165.483 247.815,127.136 223.082,110.080 193.600 C 109.507 192.610,108.851 191.672,108.623 191.517 C 107.529 190.772,109.977 190.105,123.000 187.600 C 135.011 185.290,153.381 181.541,153.567 181.361 C 153.930 181.010,151.590 181.336,147.400 182.221 M334.400 188.000 C 333.428 188.311,333.433 188.320,334.600 188.320 C 335.260 188.320,336.250 188.176,336.800 188.000 C 337.772 187.689,337.767 187.680,336.600 187.680 C 335.940 187.680,334.950 187.824,334.400 188.000 M330.800 188.800 L 329.800 189.120 330.800 189.132 C 331.350 189.138,332.160 188.989,332.600 188.800 L 333.400 188.456 332.600 188.468 C 332.160 188.474,331.350 188.624,330.800 188.800 M318.634 191.124 C 313.593 192.132,309.692 193.031,309.965 193.122 C 310.393 193.264,315.759 192.334,321.000 191.209 C 321.880 191.020,323.680 190.657,325.000 190.402 C 326.320 190.148,327.940 189.792,328.600 189.611 C 331.901 188.705,327.045 189.443,318.634 191.124 M304.400 193.992 C 302.530 194.388,299.470 195.012,297.600 195.380 C 295.730 195.748,293.772 196.137,293.249 196.245 C 289.099 197.100,289.294 203.605,293.469 203.598 C 294.726 203.596,310.847 200.486,311.145 200.188 C 311.535 199.798,309.970 200.044,302.195 201.596 C 291.439 203.742,290.691 203.638,290.691 200.000 C 290.691 197.670,291.460 197.111,295.856 196.247 C 297.805 195.864,300.120 195.390,301.000 195.195 C 301.880 194.999,303.590 194.634,304.800 194.383 C 308.063 193.707,309.521 193.282,308.600 193.278 C 308.160 193.275,306.270 193.597,304.400 193.992 M325.600 197.200 C 325.050 197.376,323.790 197.551,322.800 197.588 C 321.810 197.626,320.640 197.823,320.200 198.027 C 319.653 198.280,320.064 198.322,321.500 198.161 C 322.965 197.996,323.600 198.066,323.600 198.390 C 323.600 199.870,316.215 208.957,309.600 215.616 C 303.575 221.682,303.305 221.923,296.000 227.726 C 289.802 232.650,273.659 242.015,272.280 241.486 C 271.948 241.359,271.559 240.657,271.416 239.927 C 271.120 238.410,270.482 235.341,269.976 233.000 C 269.786 232.120,269.517 230.802,269.377 230.071 C 269.238 229.341,269.035 228.831,268.927 228.940 C 268.819 229.048,269.126 231.086,269.610 233.468 C 270.094 235.851,270.625 238.520,270.790 239.400 C 270.955 240.280,271.273 241.450,271.496 242.000 C 271.718 242.550,272.030 243.945,272.188 245.100 C 272.544 247.706,272.516 247.707,277.686 245.032 C 296.223 235.440,312.967 220.617,324.261 203.800 C 329.066 196.646,329.186 196.051,325.600 197.200 M316.400 198.800 L 315.400 199.120 316.400 199.120 C 316.950 199.120,317.850 198.976,318.400 198.800 L 319.400 198.480 318.400 198.480 C 317.850 198.480,316.950 198.624,316.400 198.800 M312.400 199.600 C 311.425 199.912,311.430 199.921,312.600 199.932 C 313.260 199.938,314.160 199.789,314.600 199.600 C 315.694 199.130,313.867 199.130,312.400 199.600 M266.889 200.264 C 260.356 203.484,262.698 213.292,270.000 213.292 C 276.167 213.292,279.264 206.199,275.081 201.654 C 273.219 199.631,269.466 198.994,266.889 200.264 M273.206 200.741 C 277.880 203.225,277.454 210.798,272.548 212.417 C 267.802 213.984,263.600 211.046,263.600 206.161 C 263.600 201.518,268.969 198.489,273.206 200.741 M102.310 201.602 C 103.159 202.119,103.705 202.823,103.860 203.600 C 103.992 204.260,104.248 204.800,104.429 204.800 C 104.982 204.800,103.961 202.245,103.111 201.500 C 102.671 201.115,102.016 200.801,101.656 200.801 C 101.265 200.802,101.530 201.126,102.310 201.602 M327.405 211.592 C 326.852 212.468,326.408 213.413,326.418 213.692 C 326.427 213.971,326.796 213.516,327.238 212.680 C 327.679 211.844,328.301 211.059,328.620 210.937 C 329.274 210.686,329.410 210.000,328.805 210.000 C 328.588 210.000,327.958 210.716,327.405 211.592 " stroke="none" fill="#afb0b0" fill-rule="evenodd"></path><path id="path3" d="M363.600 75.564 C 360.949 76.109,357.600 78.852,357.600 80.478 C 357.600 80.875,357.420 81.200,357.200 81.200 C 356.965 81.200,356.800 82.592,356.800 84.576 C 356.800 86.433,356.980 88.064,357.200 88.200 C 357.420 88.336,357.600 88.713,357.600 89.037 C 357.600 89.705,360.154 92.400,360.787 92.400 C 361.014 92.400,361.200 92.580,361.200 92.800 C 361.200 93.020,361.560 93.200,362.000 93.200 C 362.440 93.200,362.800 93.380,362.800 93.600 C 362.800 93.833,364.133 94.000,366.000 94.000 C 367.867 94.000,369.200 93.833,369.200 93.600 C 369.200 93.380,369.560 93.200,370.000 93.200 C 370.440 93.200,370.800 93.020,370.800 92.800 C 370.800 92.580,371.014 92.400,371.276 92.400 C 372.118 92.400,374.786 89.082,375.042 87.717 C 376.543 79.718,371.167 74.009,363.600 75.564 M368.197 82.472 C 369.681 83.762,369.603 86.058,368.038 87.173 C 366.491 88.275,364.983 88.219,363.780 87.016 C 360.600 83.836,364.798 79.517,368.197 82.472 M342.309 94.939 C 341.049 95.413,339.652 96.115,339.204 96.500 C 338.757 96.885,338.195 97.200,337.956 97.200 C 337.349 97.200,334.000 100.809,334.000 101.464 C 334.000 101.759,333.820 102.000,333.600 102.000 C 333.380 102.000,333.200 102.360,333.200 102.800 C 333.200 103.240,333.020 103.600,332.800 103.600 C 332.580 103.600,332.400 104.140,332.400 104.800 C 332.400 105.460,332.220 106.000,332.000 106.000 C 331.758 106.000,331.600 107.725,331.600 110.376 C 331.600 112.863,331.773 114.860,332.000 115.000 C 332.220 115.136,332.400 115.591,332.400 116.011 C 332.400 118.875,338.780 125.200,341.669 125.200 C 342.291 125.200,342.800 125.380,342.800 125.600 C 342.800 125.845,344.733 126.000,347.800 126.000 C 350.867 126.000,352.800 125.845,352.800 125.600 C 352.800 125.380,353.354 125.200,354.030 125.200 C 355.203 125.200,359.600 122.280,359.600 121.502 C 359.600 121.332,360.140 120.628,360.800 119.937 C 361.460 119.246,362.000 118.438,362.000 118.141 C 362.000 117.843,362.180 117.600,362.400 117.600 C 362.620 117.600,362.800 117.060,362.800 116.400 C 362.800 115.740,362.980 115.200,363.200 115.200 C 363.420 115.200,363.600 114.491,363.600 113.624 C 363.600 112.757,363.780 111.936,364.000 111.800 C 364.220 111.664,364.400 111.023,364.400 110.376 C 364.400 109.729,364.220 109.200,364.000 109.200 C 363.780 109.200,363.600 108.300,363.600 107.200 C 363.600 106.100,363.420 105.200,363.200 105.200 C 362.980 105.200,362.800 104.840,362.800 104.400 C 362.800 103.960,362.620 103.600,362.400 103.600 C 362.180 103.600,362.000 103.240,362.000 102.800 C 362.000 102.360,361.820 102.000,361.600 102.000 C 361.380 102.000,361.200 101.759,361.200 101.464 C 361.200 100.751,358.088 97.547,356.700 96.832 C 356.095 96.520,355.600 96.115,355.600 95.932 C 355.600 95.750,355.270 95.600,354.867 95.600 C 354.463 95.600,354.010 95.477,353.859 95.326 C 352.365 93.832,345.836 93.613,342.309 94.939 M205.204 98.669 C 203.116 98.759,201.235 99.005,201.024 99.216 C 200.813 99.427,199.697 99.600,198.544 99.600 C 197.391 99.600,196.336 99.780,196.200 100.000 C 196.064 100.220,195.164 100.400,194.200 100.400 C 193.236 100.400,192.336 100.580,192.200 100.800 C 192.064 101.020,191.243 101.200,190.376 101.200 C 189.509 101.200,188.800 101.380,188.800 101.600 C 188.800 101.820,188.181 102.000,187.424 102.000 C 186.667 102.000,185.936 102.180,185.800 102.400 C 185.664 102.620,185.023 102.800,184.376 102.800 C 183.729 102.800,183.200 102.980,183.200 103.200 C 183.200 103.420,182.660 103.600,182.000 103.600 C 181.340 103.600,180.800 103.780,180.800 104.000 C 180.800 104.220,180.091 104.400,179.224 104.400 C 178.357 104.400,177.536 104.580,177.400 104.800 C 177.264 105.020,176.803 105.200,176.376 105.200 C 175.949 105.200,175.600 105.380,175.600 105.600 C 175.600 105.820,175.060 106.000,174.400 106.000 C 173.740 106.000,173.200 106.180,173.200 106.400 C 173.200 106.620,172.840 106.800,172.400 106.800 C 171.960 106.800,171.600 106.980,171.600 107.200 C 171.600 107.420,171.240 107.600,170.800 107.600 C 170.360 107.600,170.000 107.780,170.000 108.000 C 170.000 108.220,169.712 108.400,169.360 108.400 C 169.009 108.400,168.154 108.644,167.460 108.941 C 166.767 109.239,165.210 109.908,164.000 110.427 C 162.790 110.946,161.048 111.873,160.128 112.485 C 159.208 113.098,158.263 113.600,158.028 113.600 C 157.793 113.600,157.597 113.735,157.594 113.900 C 157.590 114.065,156.690 114.640,155.594 115.179 C 154.497 115.717,153.600 116.302,153.600 116.479 C 153.600 116.655,153.364 116.800,153.075 116.800 C 152.787 116.800,152.164 117.160,151.692 117.600 C 151.220 118.040,150.673 118.400,150.476 118.400 C 150.279 118.400,149.594 118.895,148.952 119.500 C 148.311 120.105,147.299 120.853,146.704 121.162 C 145.680 121.694,144.988 122.272,140.889 126.031 C 139.948 126.894,139.029 127.600,138.845 127.600 C 138.446 127.600,129.200 136.623,129.200 137.013 C 129.200 137.162,128.750 137.819,128.200 138.473 C 126.934 139.977,126.940 140.400,128.226 140.400 C 129.882 140.400,130.779 139.742,135.000 135.425 C 137.200 133.175,140.164 130.359,141.587 129.167 C 143.009 127.975,144.539 126.672,144.987 126.271 C 149.883 121.883,162.169 114.475,170.800 110.706 C 171.570 110.370,172.854 109.805,173.653 109.451 C 175.155 108.786,181.687 106.558,183.800 105.991 C 184.460 105.814,186.080 105.373,187.400 105.010 C 195.700 102.730,205.058 101.601,215.658 101.600 C 229.383 101.600,238.297 103.088,252.200 107.700 C 257.122 109.333,257.733 109.584,264.600 112.795 C 270.908 115.744,281.995 122.739,285.845 126.200 C 286.090 126.420,287.440 127.589,288.845 128.799 C 293.384 132.705,295.625 134.916,299.484 139.300 C 303.555 143.925,303.544 143.917,305.004 142.961 C 305.780 142.452,305.879 142.217,305.489 141.810 C 305.220 141.528,304.730 140.883,304.400 140.376 C 303.219 138.560,289.223 124.800,288.557 124.800 C 288.427 124.800,287.817 124.260,287.200 123.600 C 286.583 122.940,285.863 122.400,285.600 122.400 C 285.337 122.400,284.617 121.860,284.000 121.200 C 283.383 120.540,282.708 120.000,282.499 120.000 C 282.290 120.000,281.585 119.505,280.933 118.900 C 279.614 117.676,277.767 116.467,276.700 116.129 C 276.315 116.007,276.000 115.781,276.000 115.628 C 276.000 115.475,275.370 115.102,274.600 114.800 C 273.830 114.498,273.200 114.119,273.200 113.957 C 273.200 113.555,262.720 108.400,261.903 108.400 C 261.542 108.400,261.136 108.220,261.000 108.000 C 260.864 107.780,260.313 107.600,259.776 107.600 C 259.239 107.600,258.800 107.420,258.800 107.200 C 258.800 106.980,258.440 106.800,258.000 106.800 C 257.560 106.800,257.200 106.620,257.200 106.400 C 257.200 106.180,256.840 106.000,256.400 106.000 C 255.960 106.000,255.600 105.820,255.600 105.600 C 255.600 105.380,255.060 105.200,254.400 105.200 C 253.740 105.200,253.200 105.020,253.200 104.800 C 253.200 104.580,252.581 104.400,251.824 104.400 C 251.067 104.400,250.336 104.220,250.200 104.000 C 250.064 103.780,249.333 103.600,248.576 103.600 C 247.819 103.600,247.200 103.420,247.200 103.200 C 247.200 102.980,246.660 102.800,246.000 102.800 C 245.340 102.800,244.800 102.620,244.800 102.400 C 244.800 102.180,244.080 102.000,243.200 102.000 C 242.320 102.000,241.600 101.820,241.600 101.600 C 241.600 101.380,240.981 101.200,240.224 101.200 C 239.467 101.200,238.736 101.020,238.600 100.800 C 238.464 100.580,237.564 100.400,236.600 100.400 C 235.636 100.400,234.736 100.220,234.600 100.000 C 234.464 99.780,233.409 99.600,232.256 99.600 C 231.103 99.600,229.980 99.420,229.760 99.200 C 229.330 98.770,211.690 98.388,205.204 98.669 M350.705 100.753 C 351.087 100.948,351.900 101.341,352.512 101.627 C 353.949 102.300,356.800 105.095,356.800 105.831 C 356.800 106.144,356.980 106.400,357.200 106.400 C 357.438 106.400,357.600 107.925,357.600 110.176 C 357.600 112.263,357.421 114.063,357.200 114.200 C 356.980 114.336,356.800 114.711,356.800 115.034 C 356.800 115.810,353.391 119.200,352.611 119.200 C 352.275 119.200,352.000 119.380,352.000 119.600 C 352.000 119.820,351.640 120.000,351.200 120.000 C 350.760 120.000,350.400 120.180,350.400 120.400 C 350.400 120.629,349.200 120.800,347.600 120.800 C 346.000 120.800,344.800 120.629,344.800 120.400 C 344.800 120.180,344.440 120.000,344.000 120.000 C 343.560 120.000,343.200 119.820,343.200 119.600 C 343.200 119.380,342.885 119.198,342.500 119.196 C 342.115 119.194,341.350 118.623,340.800 117.926 C 340.250 117.229,339.620 116.466,339.400 116.230 C 339.180 115.993,338.754 115.260,338.453 114.600 C 338.153 113.940,337.748 113.087,337.553 112.705 C 337.069 111.753,337.106 108.000,337.600 108.000 C 337.820 108.000,338.000 107.642,338.000 107.205 C 338.000 106.767,338.258 106.092,338.572 105.705 C 338.887 105.317,339.615 104.424,340.191 103.720 C 341.236 102.442,343.242 101.200,344.261 101.200 C 344.558 101.200,344.800 101.020,344.800 100.800 C 344.800 100.304,349.746 100.265,350.705 100.753 M360.411 128.027 C 359.868 128.254,359.328 128.566,359.211 128.721 C 359.095 128.875,358.525 129.246,357.944 129.545 C 357.363 129.844,356.644 130.563,356.347 131.144 C 356.049 131.725,355.489 132.491,355.103 132.847 C 354.716 133.203,354.400 133.968,354.400 134.547 C 354.400 135.126,354.220 135.600,354.000 135.600 C 353.765 135.600,353.600 137.000,353.600 139.000 C 353.600 141.000,353.765 142.400,354.000 142.400 C 354.220 142.400,354.400 142.760,354.400 143.200 C 354.400 143.640,354.580 144.000,354.800 144.000 C 355.020 144.000,355.200 144.288,355.200 144.640 C 355.200 145.489,358.733 148.800,359.640 148.800 C 360.032 148.800,360.464 148.980,360.600 149.200 C 360.739 149.425,362.671 149.600,365.024 149.600 C 367.541 149.600,369.200 149.441,369.200 149.200 C 369.200 148.980,369.605 148.797,370.100 148.794 C 371.319 148.785,374.734 145.230,375.052 143.638 C 375.189 142.957,375.457 142.400,375.650 142.400 C 376.139 142.400,376.091 135.303,375.600 135.000 C 375.380 134.864,375.200 134.510,375.200 134.212 C 375.200 129.994,365.458 125.920,360.411 128.027 M366.000 133.600 C 366.000 133.820,366.291 134.000,366.646 134.000 C 368.025 134.000,370.000 136.815,369.999 138.778 C 369.998 140.644,368.431 143.200,367.288 143.200 C 367.020 143.200,366.800 143.380,366.800 143.600 C 366.800 144.176,363.280 144.093,362.557 143.500 C 360.099 141.482,359.600 140.680,359.600 138.741 C 359.600 137.673,359.780 136.800,360.000 136.800 C 360.220 136.800,360.400 136.612,360.400 136.382 C 360.400 135.740,362.286 134.000,362.982 134.000 C 363.322 134.000,363.600 133.820,363.600 133.600 C 363.600 133.380,364.140 133.200,364.800 133.200 C 365.460 133.200,366.000 133.380,366.000 133.600 M145.800 145.236 C 140.388 146.329,137.565 146.903,134.200 147.593 C 127.617 148.945,124.498 150.056,120.341 152.529 C 117.161 154.421,110.400 160.755,110.400 161.841 C 110.400 161.971,110.038 162.585,109.595 163.207 C 108.323 164.993,106.621 168.437,106.040 170.400 C 105.747 171.390,105.348 172.722,105.153 173.360 C 104.959 173.998,104.800 175.146,104.800 175.912 L 104.800 177.304 106.500 177.058 C 107.435 176.923,109.055 176.630,110.100 176.406 C 111.145 176.183,112.765 175.845,113.700 175.656 C 131.329 172.089,131.907 171.923,136.889 169.004 C 144.381 164.613,150.294 156.836,152.399 148.604 C 153.765 143.263,154.276 143.523,145.800 145.236 M306.800 151.196 C 299.210 152.716,292.100 154.158,291.000 154.400 C 286.866 155.308,285.742 155.547,283.600 155.972 C 273.581 157.962,270.740 158.516,269.000 158.819 C 267.900 159.011,266.100 159.363,265.000 159.602 C 263.900 159.840,262.460 160.125,261.800 160.234 C 261.140 160.343,259.970 160.592,259.200 160.787 C 257.667 161.174,256.415 161.425,247.200 163.195 C 243.790 163.850,240.190 164.564,239.200 164.782 C 236.082 165.468,221.490 168.424,219.400 168.794 C 218.300 168.988,216.052 169.436,214.404 169.788 C 212.756 170.141,209.966 170.695,208.204 171.019 C 206.442 171.343,204.190 171.790,203.200 172.011 C 202.210 172.232,200.500 172.583,199.400 172.790 C 198.300 172.998,196.590 173.338,195.600 173.547 C 194.610 173.755,192.765 174.123,191.500 174.363 C 190.235 174.603,188.165 174.998,186.900 175.240 C 185.635 175.482,184.060 175.759,183.400 175.856 C 182.740 175.953,181.570 176.192,180.800 176.387 C 180.030 176.581,178.320 176.947,177.000 177.200 C 175.680 177.453,173.970 177.813,173.200 178.000 C 172.430 178.187,170.810 178.540,169.600 178.783 C 163.426 180.026,128.812 186.845,125.000 187.569 C 122.580 188.029,119.880 188.569,119.000 188.770 C 118.120 188.971,116.320 189.344,115.000 189.600 C 111.464 190.285,109.200 190.876,109.200 191.114 C 109.200 191.229,110.370 193.081,111.800 195.229 C 126.779 217.730,148.970 235.424,173.621 244.523 C 184.185 248.422,192.737 250.503,203.295 251.744 C 207.542 252.244,208.400 252.117,208.400 250.991 C 208.400 250.213,210.787 245.576,212.440 243.142 C 218.836 233.722,233.770 226.090,237.840 230.160 C 240.845 233.165,238.325 237.600,233.613 237.600 C 231.428 237.600,225.572 241.211,222.200 244.636 C 214.566 252.392,213.565 259.847,218.024 275.728 C 219.306 280.294,224.980 283.009,230.354 281.628 C 231.149 281.424,232.880 281.038,234.200 280.772 C 248.306 277.922,257.995 269.257,263.240 254.800 C 264.301 251.874,264.604 243.710,263.736 241.400 C 263.488 240.740,263.074 239.120,262.815 237.800 C 262.556 236.480,262.184 234.770,261.990 234.000 C 260.427 227.820,261.465 224.788,265.136 224.813 C 268.315 224.834,268.925 225.709,270.184 232.040 C 271.391 238.115,272.088 241.200,272.252 241.200 C 273.843 241.200,291.003 231.032,295.521 227.412 C 306.093 218.942,313.801 211.211,320.336 202.524 C 323.009 198.970,323.284 198.276,321.900 198.586 C 315.906 199.930,294.525 204.000,293.463 204.000 C 291.448 204.000,289.600 202.092,289.600 200.012 C 289.600 197.438,291.082 196.265,295.403 195.419 C 297.381 195.032,299.810 194.554,300.800 194.358 C 301.790 194.161,303.500 193.827,304.600 193.616 C 305.700 193.405,307.410 193.055,308.400 192.838 C 309.390 192.621,310.740 192.328,311.400 192.187 C 312.444 191.964,319.977 190.484,326.800 189.161 C 328.010 188.927,329.720 188.579,330.600 188.389 C 331.480 188.199,332.650 187.968,333.200 187.876 C 339.496 186.824,350.793 184.233,351.575 183.662 C 355.241 180.989,354.990 175.918,351.093 173.896 C 349.285 172.958,348.584 172.922,345.200 173.588 C 343.770 173.870,341.816 174.187,340.857 174.294 L 339.115 174.487 339.407 172.759 C 339.568 171.808,339.837 170.754,340.007 170.415 C 343.263 163.906,338.415 153.541,330.400 149.877 C 325.800 147.774,323.134 147.923,306.800 151.196 M56.000 163.224 C 53.910 163.632,51.210 164.149,50.000 164.372 C 45.868 165.135,38.305 166.761,38.144 166.923 C 37.730 167.336,41.506 172.184,44.312 174.841 C 54.272 184.275,64.610 186.053,83.800 181.633 C 84.680 181.431,86.480 181.056,87.800 180.800 C 91.169 180.147,93.600 179.527,93.600 179.320 C 93.600 177.899,86.715 170.542,83.200 168.206 C 75.136 162.848,66.249 161.220,56.000 163.224 M273.582 199.991 C 280.426 203.482,277.743 213.680,269.982 213.680 C 263.831 213.680,260.369 206.817,264.089 202.000 C 266.203 199.262,270.408 198.372,273.582 199.991 M101.200 203.800 C 101.200 205.010,101.020 206.000,100.800 206.000 C 100.550 206.000,100.400 208.392,100.400 212.376 C 100.400 216.196,100.560 218.852,100.800 219.000 C 101.021 219.137,101.200 220.937,101.200 223.024 C 101.200 225.275,101.362 226.800,101.600 226.800 C 101.822 226.800,102.000 227.867,102.000 229.200 C 102.000 230.533,102.178 231.600,102.400 231.600 C 102.620 231.600,102.800 232.500,102.800 233.600 C 102.800 234.700,102.980 235.600,103.200 235.600 C 103.420 235.600,103.600 236.320,103.600 237.200 C 103.600 238.080,103.748 238.800,103.929 238.800 C 104.109 238.800,104.299 239.745,104.351 240.900 C 104.402 242.055,104.614 243.060,104.822 243.133 C 105.030 243.207,105.200 243.792,105.200 244.433 C 105.200 245.075,105.380 245.600,105.600 245.600 C 105.820 245.600,106.000 246.140,106.000 246.800 C 106.000 247.460,106.180 248.000,106.400 248.000 C 106.620 248.000,106.800 248.540,106.800 249.200 C 106.800 249.860,106.980 250.400,107.200 250.400 C 107.420 250.400,107.600 250.760,107.600 251.200 C 107.600 251.640,107.780 252.000,108.000 252.000 C 108.220 252.000,108.400 252.361,108.400 252.803 C 108.400 253.812,111.191 260.953,111.656 261.133 C 111.845 261.207,112.000 261.612,112.000 262.033 C 112.000 262.455,112.180 262.800,112.400 262.800 C 112.620 262.800,112.800 263.160,112.800 263.600 C 112.800 264.040,112.959 264.400,113.153 264.400 C 113.348 264.400,113.607 264.715,113.729 265.100 C 114.025 266.036,115.324 268.166,115.700 268.333 C 115.865 268.407,116.000 268.812,116.000 269.233 C 116.000 269.655,116.146 270.000,116.325 270.000 C 116.504 270.000,116.898 270.630,117.200 271.400 C 117.502 272.170,117.857 272.800,117.988 272.800 C 118.120 272.800,118.521 273.295,118.879 273.900 C 119.237 274.505,119.996 275.540,120.565 276.200 C 121.134 276.860,121.599 277.625,121.600 277.900 C 121.600 278.175,121.750 278.400,121.932 278.400 C 122.115 278.400,122.519 278.895,122.830 279.500 C 123.140 280.105,123.678 280.870,124.024 281.200 C 124.370 281.530,125.380 282.790,126.268 284.000 C 127.961 286.307,136.819 295.600,137.325 295.600 C 137.486 295.600,138.570 296.545,139.734 297.700 C 140.898 298.855,142.453 300.250,143.189 300.800 C 143.925 301.350,144.755 302.025,145.035 302.300 C 145.314 302.575,145.647 302.800,145.775 302.800 C 145.903 302.800,146.572 303.340,147.263 304.000 C 147.954 304.660,148.685 305.200,148.888 305.200 C 149.091 305.200,149.508 305.425,149.815 305.700 C 150.905 306.677,151.423 307.020,153.300 308.003 C 154.345 308.551,155.200 309.134,155.200 309.299 C 155.200 309.465,155.560 309.600,156.000 309.600 C 156.440 309.600,156.800 309.780,156.800 310.000 C 156.800 310.220,157.120 310.400,157.512 310.400 C 157.903 310.400,158.483 310.760,158.800 311.200 C 159.117 311.640,159.697 312.000,160.088 312.000 C 160.480 312.000,160.800 312.158,160.800 312.351 C 160.800 312.545,161.385 312.920,162.100 313.185 C 162.815 313.450,163.760 313.863,164.200 314.103 C 164.640 314.343,165.720 314.891,166.600 315.320 C 167.480 315.749,168.513 316.258,168.895 316.450 C 169.277 316.643,169.862 316.800,170.195 316.800 C 170.528 316.800,170.800 316.980,170.800 317.200 C 170.800 317.420,171.160 317.600,171.600 317.600 C 172.040 317.600,172.400 317.780,172.400 318.000 C 172.400 318.220,172.749 318.400,173.176 318.400 C 173.603 318.400,174.064 318.580,174.200 318.800 C 174.336 319.020,175.067 319.200,175.824 319.200 C 176.581 319.200,177.200 319.380,177.200 319.600 C 177.200 319.820,177.639 320.000,178.176 320.000 C 178.713 320.000,179.264 320.180,179.400 320.400 C 179.536 320.620,179.999 320.800,180.429 320.800 C 180.859 320.800,181.523 320.958,181.905 321.151 C 183.061 321.735,185.404 322.400,186.305 322.400 C 186.771 322.400,187.252 322.560,187.373 322.756 C 187.494 322.951,188.179 323.204,188.896 323.318 C 189.613 323.431,191.730 323.832,193.600 324.209 C 195.772 324.647,199.709 324.961,204.500 325.079 C 208.678 325.181,212.000 325.426,212.000 325.631 C 212.000 325.834,213.620 326.000,215.600 326.000 C 217.733 326.000,219.200 325.837,219.200 325.600 C 219.200 325.350,221.665 325.200,225.794 325.200 C 229.421 325.200,233.156 325.025,234.094 324.811 C 235.032 324.596,236.880 324.219,238.200 323.971 C 239.520 323.724,241.320 323.346,242.200 323.132 C 243.080 322.917,244.385 322.646,245.100 322.527 C 245.815 322.409,246.400 322.152,246.400 321.956 C 246.400 321.760,246.940 321.600,247.600 321.600 C 248.260 321.600,248.800 321.420,248.800 321.200 C 248.800 320.980,249.340 320.800,250.000 320.800 C 250.660 320.800,251.200 320.620,251.200 320.400 C 251.200 320.180,251.652 320.000,252.205 320.000 C 252.758 320.000,253.523 319.844,253.905 319.653 C 254.838 319.186,258.381 317.953,259.500 317.706 C 259.995 317.596,260.400 317.348,260.400 317.153 C 260.400 316.959,260.760 316.800,261.200 316.800 C 261.640 316.800,262.000 316.620,262.000 316.400 C 262.000 316.180,262.360 316.000,262.800 316.000 C 263.240 316.000,263.600 315.820,263.600 315.600 C 263.600 315.380,263.960 315.200,264.400 315.200 C 264.840 315.200,265.200 315.020,265.200 314.800 C 265.200 314.580,265.560 314.400,266.000 314.400 C 266.440 314.400,266.800 314.220,266.800 314.000 C 266.800 313.780,267.160 313.600,267.600 313.600 C 268.040 313.600,268.400 313.420,268.400 313.200 C 268.400 312.980,268.672 312.800,269.005 312.800 C 269.561 312.800,271.124 312.077,271.600 311.599 C 271.710 311.489,272.292 311.145,272.893 310.835 C 273.495 310.526,274.342 309.941,274.777 309.536 C 275.211 309.131,275.746 308.800,275.966 308.800 C 276.346 308.800,278.864 307.261,279.883 306.406 C 280.149 306.183,280.509 306.000,280.683 305.999 C 280.857 305.999,281.630 305.459,282.400 304.800 C 283.170 304.141,283.959 303.601,284.153 303.601 C 284.347 303.600,284.797 303.276,285.153 302.881 C 285.509 302.486,286.430 301.728,287.200 301.196 C 287.970 300.665,289.077 299.729,289.660 299.115 C 290.244 298.502,290.817 298.000,290.935 298.000 C 291.310 298.000,302.800 286.647,302.800 286.276 C 302.800 286.081,303.307 285.444,303.926 284.860 C 304.545 284.277,305.890 282.540,306.915 281.000 C 307.940 279.460,309.143 277.801,309.589 277.314 C 310.035 276.827,310.400 276.192,310.400 275.903 C 310.400 275.613,310.760 275.117,311.200 274.800 C 311.640 274.483,312.000 273.993,312.000 273.712 C 312.000 273.430,312.180 273.200,312.400 273.200 C 312.620 273.200,312.800 272.930,312.800 272.600 C 312.800 272.270,312.946 272.000,313.125 272.000 C 313.304 272.000,313.698 271.370,314.000 270.600 C 314.302 269.830,314.696 269.200,314.875 269.200 C 315.054 269.200,315.200 268.964,315.200 268.675 C 315.200 268.387,315.560 267.764,316.000 267.292 C 316.440 266.820,316.800 266.156,316.800 265.817 C 316.800 265.478,316.980 265.200,317.200 265.200 C 317.420 265.200,317.600 264.840,317.600 264.400 C 317.600 263.960,317.736 263.600,317.902 263.600 C 318.203 263.600,318.572 262.868,319.818 259.800 C 320.175 258.920,320.921 257.210,321.476 256.000 C 322.952 252.778,323.068 252.485,324.182 249.170 C 324.742 247.503,325.200 245.478,325.200 244.670 C 325.200 243.861,325.380 243.200,325.600 243.200 C 325.820 243.200,326.000 242.570,326.000 241.800 C 326.000 241.030,326.180 240.400,326.400 240.400 C 326.620 240.400,326.800 239.770,326.800 239.000 C 326.800 238.230,326.980 237.600,327.200 237.600 C 327.420 237.600,327.600 236.790,327.600 235.800 C 327.600 234.810,327.780 234.000,328.000 234.000 C 328.220 234.000,328.400 233.100,328.400 232.000 C 328.400 230.900,328.580 230.000,328.800 230.000 C 329.029 230.000,329.200 228.800,329.200 227.200 C 329.200 225.600,329.371 224.400,329.600 224.400 C 329.851 224.400,330.000 221.867,330.000 217.600 C 330.000 213.517,329.846 210.800,329.616 210.800 C 328.902 210.800,327.600 212.544,327.600 213.500 C 327.600 216.494,326.674 226.613,326.181 229.000 C 325.536 232.125,324.152 238.256,323.608 240.400 C 323.413 241.170,323.065 242.543,322.835 243.452 C 322.351 245.365,320.588 250.451,319.802 252.200 C 319.505 252.860,318.876 254.390,318.404 255.600 C 312.809 269.932,299.529 287.425,286.000 298.283 C 282.386 301.183,275.079 306.400,274.630 306.400 C 274.548 306.400,273.338 307.090,271.941 307.934 C 265.743 311.675,257.469 315.410,250.600 317.567 C 236.955 321.852,233.111 322.447,217.542 322.683 C 201.941 322.919,198.908 322.568,184.000 318.792 C 177.450 317.133,163.528 311.002,157.132 306.959 C 152.941 304.310,152.034 303.700,149.200 301.622 C 147.550 300.412,146.110 299.317,146.000 299.188 C 145.890 299.059,145.408 298.686,144.928 298.359 C 133.335 290.451,117.919 269.636,111.629 253.400 C 110.692 250.980,109.774 248.640,109.589 248.200 C 109.404 247.760,109.036 246.680,108.771 245.800 C 108.505 244.920,108.146 243.750,107.972 243.200 C 107.797 242.650,107.266 240.490,106.790 238.400 C 106.315 236.310,105.777 233.970,105.596 233.200 C 104.236 227.427,103.421 218.965,103.410 210.515 C 103.401 204.180,103.309 203.123,102.704 202.415 C 101.583 201.102,101.200 201.455,101.200 203.800 " stroke="none" fill="#fbfbfb" fill-rule="evenodd"></path><path id="path4" d="M203.400 102.053 C 199.504 102.426,191.257 103.950,187.400 105.010 C 186.080 105.373,184.460 105.814,183.800 105.991 C 181.859 106.512,175.212 108.761,173.853 109.356 C 170.338 110.896,169.127 111.447,166.000 112.924 C 160.200 115.666,148.596 123.036,144.987 126.271 C 144.539 126.672,143.009 127.975,141.587 129.167 C 140.164 130.359,137.200 133.173,135.000 135.420 C 132.800 137.667,130.640 139.702,130.200 139.941 C 129.504 140.319,129.491 140.377,130.101 140.388 C 130.486 140.395,133.098 138.105,135.905 135.300 C 157.812 113.408,184.602 102.266,215.400 102.237 C 224.693 102.229,227.685 102.468,235.400 103.840 C 253.532 107.063,270.781 114.908,285.600 126.672 C 289.439 129.720,300.078 140.251,301.600 142.510 C 302.150 143.327,302.870 143.996,303.201 143.997 C 304.239 144.002,294.111 133.264,288.845 128.777 C 287.440 127.580,286.090 126.420,285.845 126.200 C 281.995 122.739,270.908 115.744,264.600 112.795 C 257.733 109.584,257.122 109.333,252.200 107.700 C 242.229 104.392,235.434 102.867,226.858 102.013 C 222.029 101.532,208.601 101.555,203.400 102.053 M141.056 145.740 C 135.587 146.857,131.336 147.845,131.610 147.937 C 132.059 148.086,133.233 147.881,138.200 146.781 C 140.944 146.173,152.338 144.000,152.780 144.000 C 153.390 144.000,153.301 145.077,152.399 148.604 C 150.294 156.836,144.381 164.613,136.889 169.004 C 131.907 171.923,131.329 172.089,113.700 175.656 C 112.765 175.845,111.145 176.183,110.100 176.406 C 109.055 176.630,107.410 176.926,106.443 177.065 L 104.687 177.317 104.927 175.358 C 105.059 174.281,105.275 172.860,105.408 172.200 C 105.571 171.387,105.530 171.194,105.283 171.600 C 104.635 172.662,103.856 177.216,104.254 177.614 C 104.606 177.966,106.658 177.711,111.100 176.763 C 115.117 175.905,116.434 175.645,120.607 174.886 C 132.915 172.646,138.870 169.758,145.082 163.017 C 149.638 158.072,152.792 151.653,153.428 146.031 L 153.703 143.600 152.352 143.654 C 151.608 143.684,146.525 144.623,141.056 145.740 M126.600 149.127 C 120.871 151.125,109.256 159.790,110.560 161.093 C 110.702 161.235,111.111 160.913,111.468 160.376 C 114.314 156.098,121.081 151.433,127.751 149.151 C 129.538 148.539,130.730 148.033,130.400 148.025 C 130.070 148.017,128.360 148.513,126.600 149.127 M316.409 148.884 C 314.104 149.355,312.432 149.811,312.694 149.898 C 312.955 149.985,315.111 149.662,317.485 149.180 C 327.417 147.164,335.134 150.292,338.849 157.839 C 339.547 159.256,340.193 160.340,340.286 160.248 C 340.378 160.155,339.968 159.117,339.375 157.940 C 335.174 149.611,327.561 146.609,316.409 148.884 M304.800 151.190 C 301.830 151.801,298.707 152.424,297.859 152.576 C 297.012 152.728,296.408 152.941,296.517 153.050 C 296.723 153.257,311.662 150.471,311.963 150.170 C 312.341 149.792,309.923 150.136,304.800 151.190 M293.400 153.600 L 292.600 153.944 293.400 153.932 C 293.840 153.926,294.650 153.776,295.200 153.600 L 296.200 153.280 295.200 153.268 C 294.650 153.262,293.840 153.411,293.400 153.600 M289.200 154.400 L 288.200 154.720 289.200 154.732 C 289.750 154.738,290.560 154.589,291.000 154.400 L 291.800 154.056 291.000 154.068 C 290.560 154.074,289.750 154.224,289.200 154.400 M285.200 155.200 C 284.225 155.512,284.230 155.521,285.400 155.532 C 286.060 155.538,286.960 155.389,287.400 155.200 C 288.494 154.730,286.667 154.730,285.200 155.200 M281.400 156.000 L 280.200 156.305 281.400 156.325 C 282.060 156.335,282.960 156.189,283.400 156.000 L 284.200 155.656 283.400 155.675 C 282.960 155.686,282.060 155.832,281.400 156.000 M275.285 157.096 C 273.682 157.430,272.458 157.791,272.565 157.899 C 272.762 158.095,279.656 156.843,279.967 156.555 C 280.293 156.251,278.155 156.499,275.285 157.096 M269.000 158.400 L 267.800 158.705 269.000 158.713 C 269.660 158.717,270.650 158.576,271.200 158.400 L 272.200 158.080 271.200 158.087 C 270.650 158.091,269.660 158.232,269.000 158.400 M265.200 159.200 L 264.200 159.520 265.200 159.554 C 265.750 159.573,266.470 159.413,266.800 159.200 C 267.564 158.706,266.742 158.706,265.200 159.200 M261.400 160.000 L 260.200 160.305 261.400 160.347 C 262.060 160.369,262.870 160.213,263.200 160.000 C 263.943 159.520,263.287 159.520,261.400 160.000 M249.200 162.388 C 244.030 163.445,240.147 164.331,240.571 164.355 C 241.310 164.398,251.558 162.463,255.106 161.610 C 256.044 161.384,257.214 161.197,257.706 161.194 C 258.198 161.191,258.870 161.013,259.200 160.800 C 260.158 160.181,259.403 160.301,249.200 162.388 M340.480 161.600 C 340.480 162.150,340.624 163.050,340.800 163.600 L 341.120 164.600 341.120 163.600 C 341.120 163.050,340.976 162.150,340.800 161.600 L 340.480 160.600 340.480 161.600 M60.784 162.086 C 59.124 162.257,55.704 162.845,53.184 163.392 C 47.786 164.563,49.809 164.432,56.400 163.183 C 61.744 162.171,69.003 162.266,72.800 163.398 C 76.090 164.379,76.755 164.480,75.205 163.764 C 72.220 162.386,65.471 161.601,60.784 162.086 M109.088 163.062 C 107.633 165.368,106.319 168.052,106.538 168.271 C 106.644 168.378,107.050 167.775,107.439 166.932 C 107.828 166.090,108.671 164.622,109.312 163.672 C 109.953 162.721,110.383 161.849,110.267 161.734 C 110.152 161.619,109.621 162.216,109.088 163.062 M46.400 164.664 C 45.850 164.749,44.680 164.988,43.800 165.194 C 42.920 165.400,41.602 165.683,40.871 165.823 C 40.141 165.962,39.618 166.152,39.711 166.244 C 39.905 166.439,48.056 164.877,48.342 164.591 C 48.544 164.390,48.049 164.408,46.400 164.664 M76.800 164.554 C 76.800 164.669,77.627 165.128,78.637 165.575 C 83.228 167.606,89.398 172.853,92.189 177.100 C 92.804 178.035,93.390 178.800,93.492 178.800 C 94.372 178.800,89.302 172.581,86.533 170.264 C 83.083 167.377,76.800 163.691,76.800 164.554 M237.400 164.659 C 236.960 164.751,235.880 164.993,235.000 165.198 C 234.120 165.402,232.802 165.683,232.071 165.823 C 231.341 165.962,230.818 166.152,230.911 166.244 C 231.105 166.439,239.256 164.877,239.542 164.591 C 239.760 164.374,238.592 164.411,237.400 164.659 M37.600 167.169 C 37.600 168.142,39.780 171.064,42.946 174.337 C 50.422 182.065,61.499 185.924,72.000 184.459 C 78.021 183.619,93.741 180.201,93.905 179.697 C 94.033 179.305,93.818 179.290,92.934 179.630 C 92.310 179.870,90.810 180.248,89.600 180.470 C 87.045 180.939,86.281 181.090,78.048 182.756 C 66.206 185.151,58.435 184.221,50.218 179.424 C 44.860 176.296,36.826 167.471,38.673 166.743 C 39.302 166.495,39.279 166.452,38.500 166.428 C 37.869 166.408,37.600 166.630,37.600 167.169 M227.200 166.800 L 226.200 167.120 227.200 167.113 C 227.750 167.109,228.740 166.968,229.400 166.800 L 230.600 166.495 229.400 166.487 C 228.740 166.483,227.750 166.624,227.200 166.800 M340.578 168.178 C 340.427 168.981,340.404 169.737,340.526 169.860 C 340.648 169.982,340.872 169.425,341.022 168.622 C 341.173 167.819,341.196 167.063,341.074 166.940 C 340.952 166.818,340.728 167.375,340.578 168.178 M221.200 167.946 C 219.550 168.295,218.560 168.636,219.000 168.704 C 219.440 168.773,221.240 168.481,223.000 168.055 C 226.829 167.130,225.459 167.047,221.200 167.946 M105.800 169.600 C 105.650 170.073,105.617 170.550,105.727 170.660 C 105.837 170.770,106.050 170.473,106.200 170.000 C 106.350 169.527,106.383 169.050,106.273 168.940 C 106.163 168.830,105.950 169.127,105.800 169.600 M213.400 169.458 C 212.080 169.762,209.920 170.217,208.600 170.469 C 207.280 170.721,206.417 171.001,206.683 171.091 C 207.157 171.252,217.640 169.272,217.967 168.959 C 218.302 168.639,215.737 168.919,213.400 169.458 M339.867 170.667 C 339.720 170.813,339.611 171.308,339.625 171.767 C 339.649 172.533,339.682 172.523,340.034 171.642 C 340.426 170.663,340.344 170.189,339.867 170.667 M203.200 171.600 L 202.200 171.920 203.200 171.932 C 203.750 171.938,204.560 171.789,205.000 171.600 L 205.800 171.256 205.000 171.268 C 204.560 171.274,203.750 171.424,203.200 171.600 M199.200 172.400 C 198.225 172.712,198.230 172.721,199.400 172.732 C 200.060 172.738,200.960 172.589,201.400 172.400 C 202.494 171.930,200.667 171.930,199.200 172.400 M191.000 174.033 C 186.047 175.127,186.313 175.363,191.400 174.386 C 192.720 174.133,194.567 173.791,195.504 173.626 C 197.282 173.313,198.296 172.769,196.967 172.842 C 196.545 172.865,193.860 173.401,191.000 174.033 M339.246 173.500 C 339.194 174.513,340.818 174.739,343.040 174.030 C 343.678 173.826,345.100 173.532,346.200 173.377 C 347.300 173.222,347.983 173.016,347.718 172.920 C 347.452 172.824,345.728 173.027,343.886 173.373 C 339.724 174.153,339.698 174.152,339.476 173.300 C 339.338 172.773,339.281 172.823,339.246 173.500 M349.928 173.307 C 351.946 173.953,353.496 175.634,354.031 177.757 C 354.290 178.787,354.581 179.552,354.678 179.456 C 356.049 178.084,351.693 172.706,349.320 172.841 C 348.924 172.863,349.198 173.073,349.928 173.307 M182.800 175.600 C 181.825 175.912,181.830 175.921,183.000 175.932 C 183.660 175.938,184.560 175.789,185.000 175.600 C 186.094 175.130,184.267 175.130,182.800 175.600 M179.200 176.400 L 178.200 176.720 179.200 176.754 C 179.750 176.773,180.470 176.613,180.800 176.400 C 181.564 175.906,180.742 175.906,179.200 176.400 M175.000 177.200 L 173.800 177.505 175.000 177.525 C 175.660 177.535,176.560 177.389,177.000 177.200 L 177.800 176.856 177.000 176.875 C 176.560 176.886,175.660 177.032,175.000 177.200 M168.000 178.603 C 160.328 180.172,148.729 182.487,146.477 182.899 C 145.309 183.113,144.443 183.377,144.553 183.486 C 144.747 183.680,166.395 179.566,169.246 178.792 C 170.042 178.577,171.122 178.397,171.646 178.394 C 172.171 178.391,172.870 178.213,173.200 178.000 C 174.094 177.423,173.349 177.509,168.000 178.603 M354.000 180.519 C 354.000 181.628,351.620 183.964,350.063 184.383 C 349.259 184.600,345.363 185.424,341.406 186.216 C 337.450 187.007,334.120 187.748,334.006 187.863 C 333.325 188.551,350.449 184.835,351.798 184.001 C 353.125 183.181,354.768 180.634,354.282 180.149 C 354.127 179.994,354.000 180.160,354.000 180.519 M141.200 184.000 L 140.200 184.320 141.200 184.320 C 141.750 184.320,142.650 184.176,143.200 184.000 L 144.200 183.680 143.200 183.680 C 142.650 183.680,141.750 183.824,141.200 184.000 M132.800 185.583 C 129.830 186.188,126.707 186.811,125.859 186.967 C 125.012 187.124,124.410 187.344,124.523 187.457 C 124.726 187.660,139.646 184.858,139.967 184.557 C 140.352 184.195,137.869 184.550,132.800 185.583 M121.000 188.000 L 120.200 188.344 121.000 188.332 C 121.440 188.326,122.250 188.176,122.800 188.000 L 123.800 187.680 122.800 187.668 C 122.250 187.662,121.440 187.811,121.000 188.000 M329.800 188.484 C 326.350 189.310,325.682 189.572,327.600 189.346 C 330.229 189.037,334.085 188.064,332.600 188.085 C 331.940 188.094,330.680 188.273,329.800 188.484 M117.200 188.800 L 116.200 189.120 117.200 189.132 C 117.750 189.138,118.560 188.989,119.000 188.800 L 119.800 188.456 119.000 188.468 C 118.560 188.474,117.750 188.624,117.200 188.800 M113.000 189.600 L 111.800 189.905 113.000 189.925 C 113.660 189.935,114.560 189.789,115.000 189.600 L 115.800 189.256 115.000 189.275 C 114.560 189.286,113.660 189.432,113.000 189.600 M317.600 190.866 C 309.828 192.458,309.741 192.479,310.200 192.635 C 310.420 192.710,314.020 192.078,318.200 191.230 C 322.380 190.382,325.260 189.686,324.600 189.683 C 323.940 189.681,320.790 190.213,317.600 190.866 M109.300 190.412 C 108.408 190.771,108.109 191.410,108.715 191.667 C 108.888 191.740,109.500 192.610,110.075 193.600 C 127.249 223.162,165.473 247.814,200.600 251.983 C 208.744 252.950,207.875 253.204,209.470 249.392 C 213.208 240.460,221.536 233.004,230.800 230.296 C 231.570 230.071,231.993 229.814,231.739 229.723 C 229.877 229.061,220.649 234.274,216.506 238.328 C 213.169 241.593,208.400 249.043,208.400 250.991 C 208.400 252.117,207.542 252.244,203.295 251.744 C 169.945 247.824,138.051 229.870,117.888 203.667 C 114.213 198.892,108.992 191.260,109.249 191.040 C 109.332 190.968,109.940 190.719,110.600 190.486 C 111.433 190.193,111.555 190.061,111.000 190.057 C 110.560 190.054,109.795 190.213,109.300 190.412 M306.800 193.221 C 306.370 193.514,306.654 193.554,307.800 193.362 C 309.784 193.030,310.104 192.798,308.567 192.806 C 307.925 192.809,307.130 192.996,306.800 193.221 M302.600 194.000 L 301.800 194.344 302.600 194.332 C 303.040 194.326,303.850 194.176,304.400 194.000 L 305.400 193.680 304.400 193.668 C 303.850 193.662,303.040 193.811,302.600 194.000 M298.600 194.800 C 297.871 195.113,297.888 195.144,298.800 195.144 C 299.350 195.144,300.160 194.989,300.600 194.800 C 301.329 194.487,301.312 194.456,300.400 194.456 C 299.850 194.456,299.040 194.611,298.600 194.800 M294.600 195.600 L 293.400 195.905 294.600 195.913 C 295.260 195.917,296.250 195.776,296.800 195.600 L 297.800 195.280 296.800 195.287 C 296.250 195.291,295.260 195.432,294.600 195.600 M290.760 197.242 C 288.436 199.731,290.052 203.986,293.331 204.009 C 294.929 204.020,305.887 201.896,305.278 201.693 C 305.030 201.610,302.543 202.006,299.750 202.571 C 293.238 203.891,292.619 203.881,291.169 202.431 C 289.300 200.562,289.689 198.266,292.126 196.780 C 293.051 196.216,293.197 196.003,292.660 196.001 C 292.254 196.001,291.399 196.559,290.760 197.242 M318.200 198.840 C 316.220 199.261,313.630 199.779,312.445 199.991 C 310.431 200.351,309.265 200.800,310.345 200.800 C 310.762 200.800,319.414 199.142,321.900 198.586 C 323.284 198.276,323.009 198.970,320.336 202.524 C 313.801 211.211,306.093 218.942,295.521 227.412 C 290.967 231.061,273.841 241.200,272.233 241.200 C 272.154 241.200,271.949 240.525,271.779 239.700 C 271.608 238.875,271.401 238.484,271.318 238.832 C 271.090 239.791,271.904 241.600,272.565 241.600 C 274.439 241.600,290.520 232.080,296.000 227.726 C 303.305 221.923,303.575 221.682,309.600 215.616 C 316.130 209.042,323.600 199.871,323.600 198.428 C 323.600 197.848,322.446 197.936,318.200 198.840 M266.330 200.102 C 259.779 204.105,262.354 213.680,269.982 213.680 C 272.983 213.680,276.800 211.292,276.800 209.413 C 276.800 209.196,276.244 209.692,275.564 210.517 C 270.765 216.340,261.271 211.965,263.195 204.818 C 265.434 196.502,278.487 199.057,277.025 207.526 C 276.841 208.593,276.883 208.834,277.179 208.400 C 278.091 207.061,277.551 204.344,275.886 201.891 C 274.093 199.252,269.216 198.339,266.330 200.102 M306.800 201.200 L 305.800 201.520 306.800 201.520 C 307.350 201.520,308.250 201.376,308.800 201.200 L 309.800 200.880 308.800 200.880 C 308.250 200.880,307.350 201.024,306.800 201.200 M101.800 201.677 C 103.258 202.501,103.400 203.287,103.410 210.600 C 103.421 218.969,104.241 227.447,105.596 233.200 C 105.777 233.970,106.318 236.310,106.798 238.400 C 107.798 242.753,108.751 246.084,109.603 248.200 C 109.780 248.640,110.692 250.980,111.629 253.400 C 117.919 269.636,133.335 290.451,144.928 298.359 C 145.408 298.686,145.890 299.059,146.000 299.188 C 146.110 299.317,147.550 300.412,149.200 301.622 C 152.034 303.700,152.941 304.310,157.132 306.959 C 163.530 311.003,177.473 317.143,184.000 318.791 C 184.770 318.985,186.840 319.521,188.600 319.981 C 193.399 321.236,203.825 322.804,207.000 322.749 C 209.660 322.703,209.570 322.675,205.200 322.196 C 197.493 321.351,194.936 320.908,187.613 319.149 C 184.383 318.374,179.108 316.758,177.400 316.021 C 176.960 315.832,175.070 315.089,173.200 314.372 C 160.581 309.533,145.511 299.435,135.652 289.212 C 119.355 272.312,109.734 253.382,105.561 230.000 C 104.745 225.423,103.993 215.993,104.016 210.600 C 104.028 207.520,104.030 204.587,104.019 204.082 C 103.998 203.082,102.351 201.193,101.518 201.212 C 101.233 201.219,101.360 201.428,101.800 201.677 M328.700 210.832 C 327.371 211.606,326.912 213.330,326.631 218.600 C 323.751 272.609,281.653 315.874,225.800 322.223 L 221.000 322.769 225.400 322.605 C 227.820 322.515,231.870 322.072,234.400 321.621 C 238.372 320.912,240.300 320.474,246.000 318.986 C 253.948 316.912,264.551 312.394,271.941 307.934 C 273.338 307.090,274.548 306.400,274.630 306.400 C 275.079 306.400,282.386 301.183,286.000 298.283 C 299.529 287.425,312.809 269.932,318.404 255.600 C 318.876 254.390,319.505 252.860,319.802 252.200 C 320.588 250.451,322.351 245.365,322.835 243.452 C 323.065 242.543,323.413 241.170,323.608 240.400 C 324.152 238.256,325.536 232.125,326.181 229.000 C 326.675 226.605,327.600 216.490,327.600 213.480 C 327.600 212.946,328.075 212.035,328.655 211.455 C 329.789 210.320,329.798 210.192,328.700 210.832 M262.192 226.082 C 261.075 227.410,260.981 231.210,262.003 233.742 C 262.497 234.966,262.473 233.888,261.942 231.005 C 261.362 227.860,261.686 226.580,263.311 225.589 C 264.103 225.106,264.344 224.802,263.936 224.801 C 263.570 224.801,262.786 225.377,262.192 226.082 M267.205 225.700 C 268.287 226.437,268.627 227.036,269.078 229.000 C 269.931 232.717,270.441 234.225,270.159 232.200 C 269.490 227.375,268.212 224.800,266.486 224.800 C 266.154 224.800,266.477 225.205,267.205 225.700 M233.000 229.235 C 232.410 229.514,232.639 229.559,233.873 229.406 C 238.074 228.886,240.462 232.926,237.558 235.640 C 236.874 236.278,236.490 236.800,236.703 236.800 C 236.916 236.800,237.565 236.325,238.145 235.745 C 241.287 232.604,237.094 227.298,233.000 229.235 M270.475 235.000 C 270.465 235.660,270.611 236.560,270.800 237.000 L 271.144 237.800 271.125 237.000 C 271.114 236.560,270.968 235.660,270.800 235.000 L 270.495 233.800 270.475 235.000 M262.475 235.800 C 262.465 236.460,262.611 237.360,262.800 237.800 L 263.144 238.600 263.125 237.800 C 263.114 237.360,262.968 236.460,262.800 235.800 L 262.495 234.600 262.475 235.800 M233.800 237.200 L 233.000 237.544 233.800 237.544 C 234.240 237.544,234.960 237.389,235.400 237.200 L 236.200 236.856 235.400 236.856 C 234.960 236.856,234.240 237.011,233.800 237.200 M229.400 238.846 C 226.208 240.480,225.545 241.203,228.600 239.718 C 229.920 239.077,231.450 238.350,232.000 238.103 C 232.550 237.856,232.730 237.646,232.400 237.636 C 232.070 237.625,230.720 238.170,229.400 238.846 M263.246 239.600 C 263.227 240.150,263.387 240.870,263.600 241.200 C 264.094 241.964,264.094 241.142,263.600 239.600 L 263.280 238.600 263.246 239.600 M223.978 242.302 C 217.447 247.857,213.775 255.974,214.750 262.702 C 217.370 280.789,220.369 284.079,232.150 281.786 C 242.243 279.822,247.347 277.325,253.747 271.220 C 261.518 263.808,266.269 251.756,264.530 243.866 C 264.280 242.734,264.190 243.626,264.187 247.266 C 264.173 262.882,251.243 277.329,234.200 280.772 C 232.880 281.038,231.149 281.424,230.354 281.628 C 224.980 283.009,219.306 280.294,218.024 275.728 C 216.874 271.632,215.079 261.932,215.077 259.800 C 215.072 254.119,220.767 244.118,225.397 241.680 C 225.835 241.449,226.091 241.158,225.966 241.032 C 225.841 240.907,224.946 241.479,223.978 242.302 " stroke="none" fill="#bad6df" fill-rule="evenodd"></path></g></svg>