<svg id="svg" version="1.1" xmlns="http://www.w3.org/2000/svg" xmlns:xlink="http://www.w3.org/1999/xlink" width="400" height="400" viewBox="0, 0, 400,400"><g id="svgg"><path id="path0" d="M144.331 137.589 C 138.024 138.853,132.125 140.183,131.223 140.544 C 129.058 141.410,128.200 141.372,126.811 140.345 L 125.654 139.489 124.203 140.345 C 123.405 140.816,122.875 141.002,123.025 140.759 C 123.176 140.516,122.871 140.597,122.349 140.939 C 121.827 141.281,121.310 141.545,121.200 141.525 C 120.464 141.392,113.985 144.983,113.667 145.700 C 113.593 145.865,113.278 146.000,112.967 146.000 C 112.655 146.000,112.400 146.186,112.400 146.413 C 112.400 146.639,112.085 146.941,111.700 147.083 C 110.793 147.417,103.464 154.797,103.753 155.086 C 103.874 155.207,103.529 155.655,102.986 156.082 C 102.444 156.509,102.000 157.093,102.000 157.380 C 102.000 157.667,101.726 158.130,101.390 158.408 C 101.055 158.686,100.860 158.993,100.957 159.090 C 101.054 159.187,100.799 159.601,100.390 160.010 C 99.981 160.419,99.419 161.529,99.142 162.477 C 98.866 163.425,98.537 164.290,98.411 164.400 C 97.921 164.831,97.202 166.880,97.419 167.230 C 98.256 168.586,96.186 167.116,93.704 164.593 C 92.077 162.940,90.612 161.669,90.450 161.769 C 90.287 161.870,89.845 161.540,89.466 161.037 C 89.088 160.533,87.800 159.707,86.603 159.201 C 85.406 158.695,84.538 158.100,84.675 157.879 C 84.824 157.638,84.720 157.602,84.417 157.789 C 84.122 157.972,83.769 157.873,83.570 157.551 C 83.382 157.248,83.088 156.989,82.915 156.976 C 82.742 156.962,81.918 156.654,81.085 156.290 C 80.251 155.926,79.261 155.577,78.885 155.514 C 78.508 155.451,78.095 155.259,77.968 155.086 C 77.840 154.913,77.210 154.683,76.568 154.574 C 75.925 154.466,75.130 154.265,74.800 154.128 C 73.907 153.757,73.144 153.602,71.700 153.496 C 70.985 153.443,70.400 153.288,70.400 153.152 C 70.400 153.015,67.528 152.911,64.018 152.919 C 60.508 152.927,57.700 153.039,57.779 153.167 C 57.859 153.295,57.266 153.447,56.462 153.503 C 54.494 153.643,53.941 153.764,53.000 154.263 C 52.560 154.496,51.615 154.640,50.901 154.583 C 50.187 154.526,49.702 154.642,49.825 154.840 C 49.947 155.038,49.632 155.215,49.124 155.234 C 47.049 155.312,45.745 155.516,44.741 155.921 C 44.159 156.157,43.580 156.246,43.454 156.121 C 43.328 155.995,42.725 156.087,42.113 156.325 C 41.501 156.563,40.370 156.845,39.600 156.951 C 38.830 157.058,37.750 157.256,37.200 157.391 C 36.650 157.527,35.616 157.647,34.901 157.659 C 34.187 157.670,33.675 157.797,33.763 157.940 C 33.851 158.083,33.536 158.228,33.062 158.262 C 32.588 158.296,31.621 158.368,30.914 158.422 C 30.206 158.477,29.721 158.672,29.835 158.856 C 29.948 159.040,29.791 159.095,29.485 158.977 C 29.179 158.860,28.697 159.042,28.415 159.382 C 28.133 159.722,27.654 160.000,27.351 160.000 C 27.048 160.000,26.800 160.281,26.800 160.624 C 26.800 160.967,26.629 161.142,26.420 161.012 C 25.464 160.421,25.406 166.543,26.352 168.310 C 26.583 168.741,26.664 169.203,26.532 169.335 C 26.400 169.467,26.586 170.024,26.946 170.573 C 27.306 171.123,27.600 171.886,27.600 172.271 C 27.600 173.141,30.574 179.198,31.510 180.236 C 31.890 180.656,32.675 181.720,33.255 182.600 C 34.166 183.982,36.361 186.328,39.442 189.212 C 39.905 189.645,40.471 190.000,40.699 190.000 C 40.928 190.000,41.218 190.270,41.345 190.600 C 41.471 190.930,41.851 191.200,42.187 191.200 C 42.524 191.200,42.800 191.358,42.800 191.551 C 42.800 191.745,43.377 192.142,44.083 192.434 C 44.788 192.727,45.688 193.288,46.083 193.683 C 46.477 194.077,47.160 194.400,47.600 194.400 C 48.040 194.400,48.400 194.536,48.400 194.702 C 48.400 194.869,48.985 195.269,49.700 195.592 C 51.153 196.249,51.263 196.280,52.424 196.350 C 52.877 196.378,53.142 196.571,53.013 196.779 C 52.884 196.988,53.141 197.088,53.585 197.003 C 54.028 196.918,54.618 197.066,54.895 197.333 C 55.173 197.601,55.670 197.800,56.000 197.776 C 56.330 197.753,56.960 197.946,57.400 198.205 C 57.840 198.465,58.740 198.644,59.400 198.603 C 60.060 198.562,60.825 198.702,61.100 198.913 C 61.375 199.125,61.600 199.164,61.600 199.000 C 61.600 198.836,61.825 198.880,62.100 199.097 C 62.751 199.611,72.293 199.486,73.600 198.946 C 74.150 198.719,75.140 198.569,75.800 198.612 C 76.460 198.656,77.345 198.514,77.766 198.297 C 78.187 198.079,79.087 197.856,79.766 197.800 C 80.445 197.744,81.450 197.522,82.000 197.307 C 82.550 197.091,83.231 196.996,83.513 197.095 C 83.796 197.194,84.250 197.090,84.524 196.863 C 84.797 196.637,86.006 196.352,87.210 196.231 C 88.415 196.111,89.940 195.857,90.600 195.667 C 91.260 195.478,92.050 195.409,92.356 195.513 C 92.661 195.618,92.805 195.531,92.674 195.320 C 92.544 195.109,92.834 194.970,93.319 195.010 C 93.803 195.051,94.603 194.935,95.097 194.753 C 96.511 194.231,96.953 194.626,98.762 198.021 C 99.697 199.775,100.638 201.100,100.853 200.967 C 102.127 200.180,104.795 202.596,104.799 204.539 C 104.799 204.946,105.825 206.746,107.079 208.539 C 129.104 240.058,163.188 260.781,200.905 265.586 C 206.678 266.321,207.182 266.539,207.194 268.304 C 207.211 270.815,210.154 283.618,211.283 286.092 C 215.824 296.045,226.931 298.334,242.800 292.586 C 258.291 286.975,269.129 274.107,272.260 257.609 L 272.600 255.818 279.800 252.204 C 291.541 246.311,301.789 239.289,310.855 230.925 C 317.865 224.459,326.023 215.215,326.528 213.165 C 326.960 211.410,328.338 209.969,329.343 210.221 C 330.284 210.458,331.853 209.397,332.075 208.375 C 332.144 208.059,332.483 207.530,332.829 207.200 C 333.839 206.235,335.581 203.493,335.385 203.175 C 335.286 203.015,335.429 202.796,335.702 202.688 C 335.976 202.580,336.740 201.436,337.400 200.146 C 338.848 197.315,340.116 196.000,341.397 196.000 C 341.923 196.000,342.456 195.832,342.583 195.628 C 342.709 195.423,343.274 195.339,343.839 195.441 C 344.403 195.544,344.776 195.486,344.669 195.312 C 344.562 195.139,344.953 194.963,345.537 194.920 C 347.088 194.807,349.384 194.502,349.500 194.394 C 349.664 194.240,350.348 194.103,351.224 194.050 C 351.759 194.017,351.948 193.825,351.765 193.500 C 351.547 193.114,351.599 193.107,351.993 193.471 C 352.310 193.765,352.748 193.812,353.151 193.598 C 353.508 193.408,354.385 193.017,355.100 192.729 C 355.815 192.440,356.400 192.069,356.400 191.902 C 356.400 191.736,356.618 191.600,356.885 191.600 C 357.568 191.600,361.650 187.204,361.377 186.763 C 361.254 186.563,361.323 186.400,361.531 186.400 C 362.547 186.400,363.574 182.641,363.606 178.800 C 363.647 173.987,359.135 165.404,357.195 166.603 C 356.978 166.737,356.800 166.586,356.800 166.266 C 356.800 165.782,356.049 165.201,355.200 165.028 C 355.090 165.006,354.775 164.845,354.500 164.670 C 354.209 164.485,354.000 164.540,354.000 164.800 C 354.000 165.046,353.817 165.134,353.593 164.996 C 353.370 164.858,353.285 164.587,353.404 164.393 C 353.524 164.200,353.257 164.112,352.811 164.198 C 352.365 164.284,352.000 164.197,352.000 164.005 C 352.000 163.813,351.595 163.598,351.100 163.528 C 350.316 163.416,350.200 163.163,350.199 161.560 C 350.198 160.548,349.975 159.451,349.702 159.123 C 349.430 158.795,349.313 158.421,349.442 158.291 C 349.743 157.990,347.640 152.688,347.079 152.332 C 346.846 152.185,346.609 151.735,346.550 151.332 C 346.492 150.929,345.891 150.105,345.216 149.500 C 344.540 148.895,344.080 148.400,344.194 148.400 C 344.307 148.400,343.995 147.995,343.500 147.500 C 343.005 147.005,342.452 146.649,342.270 146.710 C 342.089 146.770,342.050 146.643,342.183 146.427 C 342.316 146.212,341.925 145.717,341.313 145.327 C 340.701 144.938,340.056 144.390,339.880 144.110 C 339.704 143.829,339.299 143.600,338.980 143.600 C 338.661 143.600,338.400 143.423,338.400 143.208 C 338.400 142.992,337.957 142.704,337.416 142.568 C 336.875 142.433,336.225 142.071,335.971 141.765 C 335.717 141.459,335.330 141.320,335.110 141.456 C 334.890 141.591,334.578 141.487,334.415 141.225 C 334.253 140.962,333.778 140.683,333.360 140.604 C 332.942 140.525,332.555 140.425,332.500 140.381 C 332.445 140.336,332.220 140.255,332.000 140.200 C 331.780 140.145,331.510 140.055,331.400 140.000 C 331.290 139.945,330.885 139.862,330.500 139.815 C 330.115 139.769,329.494 139.596,329.119 139.430 C 328.745 139.265,328.262 139.238,328.047 139.371 C 327.831 139.504,327.560 139.459,327.444 139.272 C 327.270 138.990,319.800 138.897,319.800 139.177 C 319.800 139.267,318.895 139.418,316.400 139.746 C 315.630 139.848,314.460 140.057,313.800 140.212 C 313.140 140.367,312.330 140.487,312.000 140.480 C 311.670 140.473,311.130 140.569,310.800 140.694 C 309.903 141.033,307.764 141.449,306.276 141.573 C 306.098 141.588,306.051 141.759,306.171 141.953 C 306.701 142.810,304.742 144.429,303.260 144.358 C 302.457 144.320,269.760 150.681,230.600 158.495 C 191.440 166.309,158.140 172.898,156.600 173.137 C 155.060 173.376,153.215 173.690,152.500 173.836 C 150.714 174.199,150.821 173.776,153.443 170.124 C 156.761 165.502,159.191 160.274,159.994 156.026 C 161.878 146.067,161.033 136.677,158.155 135.583 C 156.792 135.065,157.267 134.996,144.331 137.589 M153.794 143.451 C 154.488 144.145,154.445 145.440,153.531 151.400 C 151.677 163.478,142.835 174.033,131.016 178.275 C 129.206 178.924,106.329 183.600,104.962 183.600 C 101.012 183.600,104.548 167.923,110.170 160.505 C 116.850 151.691,122.310 148.972,140.875 145.220 C 154.716 142.422,153.000 142.657,153.794 143.451 M326.880 147.642 C 337.667 149.891,344.169 160.670,340.927 170.926 C 340.130 173.448,340.145 173.454,344.793 172.601 C 351.775 171.320,356.104 174.487,355.043 180.100 C 354.156 184.797,354.615 184.644,321.462 191.227 C 300.035 195.481,292.498 197.123,291.772 197.693 C 289.962 199.117,290.605 202.113,292.896 202.925 C 293.279 203.061,300.299 201.848,308.496 200.230 C 331.044 195.780,329.794 195.550,324.627 203.200 C 313.031 220.371,297.936 234.035,279.387 244.153 C 272.060 248.149,272.795 248.790,270.027 236.000 C 269.385 233.030,268.675 229.790,268.449 228.800 C 267.646 225.265,264.083 224.331,262.569 227.259 C 262.012 228.338,262.084 228.994,263.572 236.311 C 267.074 253.534,264.980 264.066,255.897 274.925 C 247.790 284.617,228.521 291.275,221.487 286.814 C 216.254 283.495,212.205 262.588,215.154 254.114 C 218.113 245.614,224.714 239.275,233.200 236.785 C 237.442 235.540,238.000 235.122,238.000 233.191 C 238.000 229.997,235.927 229.308,230.942 230.846 C 221.483 233.765,213.463 241.016,209.976 249.800 C 209.452 251.120,208.802 252.560,208.532 253.000 C 208.261 253.440,207.917 254.610,207.766 255.600 C 207.264 258.885,206.648 258.953,195.600 256.943 C 158.146 250.129,124.930 226.621,107.032 194.261 C 105.374 191.262,105.389 191.199,108.000 190.253 C 109.265 189.795,309.668 149.524,320.800 147.492 C 322.679 147.148,324.760 147.200,326.880 147.642 M68.963 161.615 C 80.682 163.309,91.295 171.239,95.318 181.308 C 96.487 184.234,96.618 185.018,96.004 185.398 C 94.454 186.355,71.455 190.392,67.526 190.396 C 54.188 190.409,42.754 183.436,36.921 171.730 C 34.215 166.300,33.767 166.609,48.600 163.678 C 62.228 160.984,63.621 160.843,68.963 161.615 M267.223 200.874 C 264.632 202.225,263.800 203.568,263.800 206.400 C 263.800 212.964,271.735 215.137,275.500 209.604 C 278.963 204.515,272.771 197.984,267.223 200.874 " stroke="none" fill="#8a8d8e" fill-rule="evenodd"></path><path id="path1" d="M203.600 103.239 C 180.591 106.247,162.270 113.819,145.674 127.183 C 141.480 130.560,133.200 138.532,133.200 139.193 C 133.200 139.772,132.904 139.816,145.129 137.400 C 159.436 134.572,159.368 134.565,160.438 138.897 C 162.720 148.132,159.767 161.315,153.443 170.124 C 150.821 173.776,150.714 174.199,152.500 173.836 C 153.215 173.690,155.060 173.373,156.600 173.131 C 158.140 172.889,163.360 171.901,168.200 170.936 C 173.040 169.971,180.150 168.565,184.000 167.810 C 187.850 167.056,215.786 161.480,246.081 155.420 C 276.375 149.359,301.260 144.400,301.381 144.400 C 302.208 144.400,301.079 142.746,297.670 138.962 C 274.508 113.257,236.725 98.908,203.600 103.239 M104.800 212.502 C 104.800 264.636,143.631 311.246,194.400 320.050 C 203.924 321.702,204.706 321.766,215.200 321.772 C 273.269 321.804,319.599 279.878,325.976 221.523 C 326.799 213.998,326.632 213.642,323.903 217.100 C 313.070 230.831,297.172 243.484,279.800 252.204 L 272.600 255.818 272.260 257.609 C 269.129 274.107,258.291 286.975,242.800 292.586 C 226.931 298.334,215.824 296.045,211.283 286.092 C 210.154 283.618,207.211 270.815,207.194 268.304 C 207.182 266.539,206.678 266.321,200.905 265.586 C 163.134 260.774,127.663 239.106,106.800 208.101 C 104.834 205.179,104.800 205.254,104.800 212.502 " stroke="none" fill="#09b7ed" fill-rule="evenodd"></path><path id="path2" d="M127.000 140.400 C 127.978 141.481,132.000 141.147,132.000 139.985 C 132.000 139.799,131.505 139.906,130.900 140.221 C 129.462 140.971,127.636 140.960,127.345 140.200 C 127.218 139.870,126.926 139.600,126.695 139.600 C 126.465 139.600,126.602 139.960,127.000 140.400 M305.437 143.000 C 304.983 143.693,304.385 144.018,303.491 144.060 C 302.247 144.118,302.241 144.126,303.324 144.289 C 304.502 144.466,305.377 143.964,306.036 142.733 C 306.613 141.655,306.196 141.841,305.437 143.000 M147.400 143.898 C 144.540 144.465,142.380 144.990,142.600 145.063 C 142.820 145.137,145.250 144.755,148.000 144.216 C 154.090 143.021,154.106 143.029,153.601 147.000 C 152.093 158.849,141.758 170.308,129.600 173.612 C 124.634 174.962,105.173 178.616,104.614 178.304 C 103.776 177.835,103.838 175.968,104.810 172.461 C 108.383 159.567,118.098 150.491,131.400 147.620 C 140.605 145.633,142.168 145.266,141.550 145.234 C 140.288 145.168,128.965 147.657,126.277 148.590 C 113.508 153.024,103.600 166.249,103.600 178.859 C 103.600 182.946,103.788 183.600,104.962 183.600 C 106.329 183.600,129.206 178.924,131.016 178.275 C 142.835 174.033,151.677 163.478,153.531 151.400 C 154.576 144.587,154.426 142.643,152.871 142.833 C 152.722 142.851,150.260 143.331,147.400 143.898 M321.000 147.464 C 320.560 147.558,308.262 150.008,293.671 152.908 C 279.080 155.808,267.322 158.241,267.542 158.314 C 267.762 158.387,279.700 156.105,294.071 153.242 C 324.564 147.167,323.107 147.403,326.388 147.998 C 333.312 149.253,339.267 154.849,341.078 161.800 L 341.599 163.800 341.382 162.021 C 340.341 153.477,329.403 145.666,321.000 147.464 M209.276 169.727 C 178.408 175.918,153.329 181.043,153.544 181.115 C 153.957 181.252,266.480 158.838,266.767 158.561 C 267.199 158.143,261.813 159.189,209.276 169.727 M60.200 161.471 C 51.629 162.550,35.742 166.365,35.328 167.442 C 34.582 169.387,40.655 178.531,45.253 182.386 C 55.370 190.870,63.461 192.055,83.704 188.017 C 98.363 185.093,97.118 185.813,95.318 181.308 C 90.168 168.420,74.646 159.652,60.200 161.471 M73.323 162.989 C 81.290 165.298,88.876 170.756,92.764 176.978 C 95.230 180.926,95.784 180.604,81.800 183.352 C 67.780 186.108,63.977 186.146,56.358 183.603 C 46.849 180.429,34.030 168.519,37.900 166.455 C 38.497 166.136,56.672 162.380,60.200 161.846 C 63.138 161.401,69.867 161.987,73.323 162.989 M341.701 165.400 C 341.705 166.280,341.787 166.593,341.883 166.095 C 341.979 165.598,341.975 164.878,341.875 164.495 C 341.775 164.113,341.696 164.520,341.701 165.400 M340.863 169.400 C 340.567 170.720,340.231 172.205,340.116 172.700 C 339.854 173.825,340.422 173.851,345.225 172.930 C 351.163 171.792,354.600 173.958,354.600 178.840 C 354.600 183.839,353.298 184.535,338.542 187.421 C 331.999 188.701,326.843 189.814,327.084 189.895 C 327.925 190.175,350.191 185.519,351.706 184.746 C 355.494 182.813,356.303 177.666,353.333 174.379 C 351.208 172.026,349.671 171.706,344.793 172.601 C 340.122 173.458,340.118 173.457,340.988 170.835 C 341.357 169.726,341.600 168.409,341.529 167.909 C 341.450 167.352,341.192 167.929,340.863 169.400 M137.286 184.085 C 129.524 185.636,123.253 186.987,123.353 187.086 C 123.543 187.277,152.482 181.649,152.767 181.365 C 153.161 180.974,150.619 181.420,137.286 184.085 M114.800 188.595 C 109.045 189.824,105.600 190.889,105.600 191.440 C 105.600 191.990,108.812 197.400,111.921 202.085 C 131.124 231.029,161.071 250.662,195.600 256.943 C 206.648 258.953,207.264 258.885,207.766 255.600 C 207.917 254.610,208.261 253.440,208.532 253.000 C 208.802 252.560,209.452 251.120,209.976 249.800 C 213.463 241.016,221.483 233.765,230.942 230.846 C 235.927 229.308,238.000 229.997,238.000 233.191 C 238.000 235.122,237.442 235.540,233.200 236.785 C 222.136 240.032,214.021 250.295,214.005 261.060 C 213.998 266.121,217.028 281.154,218.594 283.826 C 221.452 288.703,225.710 289.344,236.800 286.567 C 252.006 282.759,262.842 270.212,265.054 253.850 C 265.793 248.385,265.627 246.417,263.572 236.311 C 262.084 228.994,262.012 228.338,262.569 227.259 C 264.083 224.331,267.646 225.265,268.449 228.800 C 268.675 229.790,269.385 233.030,270.027 236.000 C 272.795 248.790,272.060 248.149,279.387 244.153 C 297.936 234.035,313.031 220.371,324.627 203.200 C 329.794 195.550,331.044 195.780,308.496 200.230 C 293.721 203.147,292.855 203.241,291.500 202.077 C 289.139 200.050,291.250 197.134,295.610 196.398 C 297.145 196.139,298.400 195.838,298.400 195.729 C 298.400 195.619,297.635 195.650,296.700 195.797 C 291.819 196.565,290.400 197.472,290.400 199.826 C 290.400 204.081,291.027 204.116,307.690 200.793 C 325.878 197.166,325.899 197.167,322.728 201.463 C 311.296 216.950,296.543 229.851,280.078 238.761 C 271.828 243.225,271.734 243.218,270.799 238.115 C 268.824 227.337,267.909 225.200,265.267 225.200 C 261.627 225.200,261.293 226.960,263.156 236.335 C 265.588 248.571,265.618 251.080,263.409 257.575 C 258.929 270.744,248.112 279.349,231.969 282.584 C 219.921 284.998,214.820 278.584,214.645 260.800 C 214.540 250.127,221.837 240.913,233.381 237.141 C 237.691 235.732,238.400 235.175,238.400 233.192 C 238.400 229.703,236.108 228.857,230.942 230.440 C 221.474 233.342,213.257 240.731,209.579 249.652 C 207.921 253.672,207.523 253.788,199.497 252.587 C 162.881 247.108,130.235 226.082,110.262 195.114 C 108.036 191.663,107.799 190.634,109.137 190.231 C 109.502 190.121,112.590 189.475,116.000 188.796 C 122.771 187.447,123.499 187.261,122.000 187.267 C 121.450 187.269,118.210 187.867,114.800 188.595 M313.689 192.302 C 307.688 193.517,302.854 194.587,302.945 194.679 C 303.099 194.833,325.300 190.577,326.200 190.221 C 327.685 189.634,323.079 190.400,313.689 192.302 M299.600 195.200 L 298.600 195.520 299.600 195.520 C 300.150 195.520,301.050 195.376,301.600 195.200 L 302.600 194.880 301.600 194.880 C 301.050 194.880,300.150 195.024,299.600 195.200 M267.842 199.995 C 262.384 201.725,261.706 209.594,266.784 212.279 C 272.796 215.458,279.224 209.021,275.915 203.135 C 274.407 200.451,270.813 199.053,267.842 199.995 M273.864 201.422 C 278.791 205.180,276.226 212.600,270.000 212.600 C 266.106 212.600,263.800 210.294,263.800 206.400 C 263.800 201.135,269.677 198.228,273.864 201.422 M101.964 201.236 C 103.139 201.706,103.872 202.613,104.359 204.200 C 104.569 204.883,104.743 205.090,104.764 204.680 C 104.848 202.993,102.969 200.756,101.526 200.825 C 101.237 200.839,101.434 201.024,101.964 201.236 M327.913 210.700 C 327.096 211.637,326.396 213.026,326.416 213.674 C 326.424 213.963,326.675 213.640,326.973 212.955 C 327.271 212.271,327.928 211.326,328.433 210.855 C 328.938 210.385,329.165 210.000,328.937 210.000 C 328.710 210.000,328.249 210.315,327.913 210.700 " stroke="none" fill="#afb0b0" fill-rule="evenodd"></path><path id="path3" d="M362.237 75.604 C 361.158 76.025,359.751 76.872,359.110 77.485 C 358.027 78.521,357.667 79.151,356.456 82.119 C 355.893 83.499,355.857 86.664,356.400 87.000 C 356.620 87.136,356.800 87.606,356.800 88.045 C 356.800 92.605,365.130 96.179,370.177 93.784 C 381.741 88.297,374.164 70.947,362.237 75.604 M368.300 83.082 C 368.575 83.451,368.797 84.214,368.794 84.776 C 368.777 87.643,365.055 88.382,363.395 85.848 C 361.692 83.249,366.433 80.575,368.300 83.082 M343.336 94.204 C 328.757 98.800,326.198 116.746,338.978 124.760 C 340.066 125.442,341.361 126.000,341.855 126.000 C 342.349 126.000,342.864 126.180,343.000 126.400 C 343.140 126.627,345.130 126.800,347.600 126.800 C 350.070 126.800,352.060 126.627,352.200 126.400 C 352.336 126.180,352.842 125.998,353.324 125.996 C 355.851 125.985,360.884 121.690,362.648 118.038 C 363.243 116.807,363.900 115.456,364.108 115.036 C 364.607 114.029,364.597 106.743,364.095 105.764 C 363.880 105.344,363.341 104.181,362.897 103.181 C 359.819 96.249,350.466 91.956,343.336 94.204 M206.600 98.235 C 202.240 98.663,194.463 99.691,193.400 99.981 C 192.740 100.161,191.120 100.528,189.800 100.797 C 188.480 101.066,186.950 101.425,186.400 101.594 C 185.850 101.764,184.050 102.310,182.400 102.808 C 161.577 109.087,139.730 123.074,128.581 137.265 C 127.098 139.153,126.866 139.650,127.375 139.846 C 129.154 140.528,130.597 139.599,136.000 134.291 C 170.739 100.161,220.558 91.764,264.600 112.615 C 277.749 118.840,289.298 127.813,301.522 141.300 C 303.428 143.402,303.885 143.545,305.230 142.456 L 306.149 141.712 303.094 138.110 C 291.387 124.312,275.009 112.832,256.600 105.520 C 255.280 104.995,253.390 104.328,252.400 104.038 C 251.410 103.747,250.240 103.364,249.800 103.188 C 249.360 103.011,248.550 102.750,248.000 102.606 C 247.450 102.463,246.370 102.166,245.600 101.946 C 236.644 99.390,229.078 98.382,217.600 98.215 C 212.430 98.140,207.480 98.149,206.600 98.235 M350.627 101.389 C 358.949 103.871,359.931 114.411,352.250 118.817 C 346.084 122.353,338.039 117.648,338.009 110.487 C 337.982 103.950,344.195 99.470,350.627 101.389 M359.281 128.422 C 350.586 132.768,350.876 145.104,359.775 149.438 C 361.860 150.454,367.191 150.817,368.705 150.047 C 369.087 149.852,369.938 149.447,370.595 149.147 C 372.310 148.362,374.933 145.635,375.544 144.000 C 375.831 143.230,376.232 142.287,376.433 141.905 C 377.760 139.391,376.226 133.581,373.413 130.467 C 370.307 127.029,363.920 126.104,359.281 128.422 M367.078 134.782 C 368.981 135.942,369.742 137.327,369.494 139.177 C 368.700 145.092,360.246 144.827,360.246 138.887 C 360.246 135.040,363.900 132.844,367.078 134.782 M140.000 146.764 C 122.036 150.482,116.622 153.365,110.291 162.586 C 107.248 167.019,104.097 176.155,105.435 176.669 C 106.139 176.939,127.634 172.621,130.513 171.630 C 141.783 167.753,150.865 157.270,152.633 146.100 C 152.974 143.948,153.827 143.903,140.000 146.764 M316.800 149.592 C 314.930 150.014,302.060 152.616,288.200 155.374 C 274.340 158.132,250.490 162.894,235.200 165.955 C 219.910 169.015,185.485 175.894,158.700 181.239 C 129.813 187.005,110.000 191.136,110.000 191.395 C 110.000 193.206,120.478 206.840,127.186 213.758 C 147.749 234.962,173.717 247.703,204.200 251.541 C 207.738 251.987,207.633 252.041,208.736 249.197 C 213.927 235.809,235.182 223.010,238.969 230.991 C 240.623 234.477,239.241 236.546,234.425 237.793 C 224.871 240.269,217.568 248.036,215.577 257.840 C 215.075 260.309,217.120 272.585,218.685 276.495 C 220.895 282.020,227.691 282.895,239.200 279.138 C 250.733 275.372,260.177 265.220,263.222 253.315 C 264.346 248.918,264.209 246.403,262.333 237.000 C 260.214 226.375,260.667 224.400,265.224 224.400 C 268.099 224.400,269.286 225.764,270.165 230.074 C 272.442 241.246,272.114 240.208,273.341 240.121 C 277.032 239.859,294.338 228.439,303.856 219.984 C 310.054 214.479,322.000 200.976,322.000 199.475 C 322.000 198.963,320.561 199.195,307.567 201.797 C 300.435 203.226,294.150 204.395,293.600 204.396 C 291.042 204.399,288.872 201.674,289.360 199.071 C 289.919 196.094,288.844 196.403,320.998 189.957 C 352.465 183.649,352.064 183.760,353.351 181.047 C 354.159 179.343,354.161 178.817,353.360 176.816 C 352.088 173.638,349.640 173.030,343.132 174.278 C 338.815 175.106,338.368 174.883,339.149 172.298 C 340.642 167.352,340.832 165.702,340.236 162.843 C 337.998 152.111,328.771 146.894,316.800 149.592 M61.000 162.853 C 57.474 163.183,39.525 166.751,39.036 167.220 C 38.138 168.079,44.105 174.938,48.152 177.697 C 57.790 184.267,64.984 185.096,82.200 181.621 C 94.119 179.216,93.185 179.577,92.205 177.758 C 87.207 168.476,73.069 161.723,61.000 162.853 M94.383 165.300 C 95.364 166.345,96.219 167.200,96.283 167.200 C 96.584 167.200,96.266 166.841,94.500 165.183 L 92.600 163.400 94.383 165.300 M273.320 199.448 C 278.278 201.959,279.277 207.944,275.388 211.834 C 270.514 216.707,262.393 213.346,262.339 206.434 C 262.296 200.906,268.458 196.986,273.320 199.448 M100.184 206.702 C 99.776 214.258,100.625 226.578,101.990 232.900 C 102.215 233.945,102.563 235.565,102.763 236.500 C 103.808 241.396,106.051 249.171,107.176 251.800 C 107.364 252.240,107.793 253.230,108.128 254.000 C 108.463 254.770,109.106 256.337,109.556 257.483 C 115.187 271.809,128.769 289.738,142.241 300.627 C 143.584 301.712,145.204 303.021,145.841 303.536 C 150.667 307.433,162.343 314.200,169.600 317.305 C 181.540 322.415,193.704 325.334,206.000 326.043 C 209.410 326.239,213.441 326.506,214.958 326.637 C 216.542 326.773,218.074 326.700,218.558 326.465 C 219.021 326.241,222.100 325.964,225.400 325.851 C 240.475 325.332,262.864 318.454,273.262 311.146 C 273.846 310.736,274.455 310.400,274.615 310.400 C 274.775 310.400,277.447 308.701,280.553 306.625 C 298.548 294.594,313.518 276.264,322.169 255.668 C 323.540 252.406,326.000 244.923,326.000 244.018 C 326.000 243.594,326.180 243.136,326.400 243.000 C 326.620 242.864,326.800 242.234,326.800 241.600 C 326.800 240.966,326.960 240.348,327.156 240.227 C 327.351 240.106,327.612 239.421,327.734 238.704 C 327.856 237.987,328.155 236.500,328.399 235.400 C 329.746 229.324,330.281 224.854,330.638 216.686 L 330.914 210.372 329.666 211.086 C 327.975 212.053,327.704 212.984,327.424 218.800 C 326.618 235.524,320.046 255.859,310.645 270.715 C 266.951 339.768,167.069 340.976,121.726 273.000 C 109.815 255.143,102.991 231.997,103.211 210.200 C 103.244 206.900,103.256 203.988,103.236 203.729 C 103.177 202.949,101.937 201.939,101.328 202.172 C 101.015 202.293,100.861 202.225,100.986 202.023 C 101.111 201.821,101.049 201.554,100.847 201.429 C 100.638 201.300,100.354 203.559,100.184 206.702 " stroke="none" fill="#fbfbfb" fill-rule="evenodd"></path><path id="path4" d="M209.000 101.479 C 186.474 102.619,163.038 111.662,144.800 126.249 C 140.832 129.422,130.542 139.475,130.897 139.830 C 131.031 139.964,132.999 138.142,135.270 135.782 C 177.378 92.028,248.868 90.579,292.358 132.597 C 297.108 137.186,302.153 142.685,302.493 143.643 C 302.602 143.949,302.830 144.070,303.001 143.911 C 303.453 143.490,301.750 141.409,296.474 135.936 C 273.490 112.091,242.275 99.794,209.000 101.479 M103.461 206.692 C 100.400 239.105,118.362 278.027,146.336 299.600 C 213.211 351.171,309.739 314.585,325.744 231.600 C 327.089 224.629,328.104 211.802,327.200 213.200 C 326.987 213.530,326.809 215.157,326.806 216.815 C 326.748 245.454,309.763 278.948,285.600 298.074 C 219.594 350.320,122.077 315.085,106.053 233.200 C 104.609 225.822,104.317 222.800,104.145 213.422 C 103.964 203.537,103.858 202.493,103.461 206.692 " stroke="none" fill="#bad6df" fill-rule="evenodd"></path><path id="path5" d="M128.100 140.676 C 128.485 140.776,129.115 140.776,129.500 140.676 C 129.885 140.575,129.570 140.493,128.800 140.493 C 128.030 140.493,127.715 140.575,128.100 140.676 M152.900 143.632 C 153.285 143.856,153.614 144.346,153.632 144.720 C 153.652 145.158,153.737 145.217,153.869 144.887 C 154.109 144.291,153.311 143.194,152.651 143.212 C 152.403 143.219,152.515 143.408,152.900 143.632 M152.921 148.832 C 150.991 158.989,140.444 169.883,129.572 172.948 C 125.450 174.111,105.066 178.026,104.762 177.713 C 104.594 177.541,104.383 176.770,104.293 176.000 C 104.134 174.652,104.126 174.663,104.064 176.280 C 104.020 177.426,104.195 178.070,104.614 178.304 C 105.173 178.616,124.634 174.962,129.600 173.612 C 141.208 170.457,151.989 158.937,153.475 148.100 C 153.824 145.556,153.449 146.051,152.921 148.832 M322.700 147.882 C 323.195 147.978,324.005 147.978,324.500 147.882 C 324.995 147.787,324.590 147.709,323.600 147.709 C 322.610 147.709,322.205 147.787,322.700 147.882 M122.300 150.629 C 120.749 151.470,120.925 151.761,122.500 150.959 C 124.008 150.193,124.275 149.994,123.767 150.016 C 123.565 150.025,122.905 150.301,122.300 150.629 M113.600 157.000 C 112.628 157.990,111.923 158.800,112.033 158.800 C 112.143 158.800,113.028 157.990,114.000 157.000 C 114.972 156.010,115.677 155.200,115.567 155.200 C 115.457 155.200,114.572 156.010,113.600 157.000 M62.711 161.893 C 63.651 161.978,65.091 161.977,65.911 161.891 C 66.730 161.805,65.960 161.736,64.200 161.737 C 62.440 161.739,61.770 161.809,62.711 161.893 M107.380 165.640 C 106.811 166.762,106.413 167.747,106.495 167.829 C 106.577 167.911,107.127 166.993,107.718 165.789 C 108.308 164.585,108.706 163.600,108.602 163.600 C 108.498 163.600,107.948 164.518,107.380 165.640 M341.314 165.400 C 341.317 166.500,341.395 166.903,341.487 166.295 C 341.579 165.686,341.577 164.786,341.482 164.295 C 341.387 163.803,341.311 164.300,341.314 165.400 M37.335 167.026 C 36.466 169.289,43.187 176.676,49.558 180.460 C 58.945 186.035,65.268 186.602,81.800 183.352 C 94.442 180.868,94.011 180.998,93.946 179.685 C 93.898 178.742,93.868 178.718,93.718 179.500 C 93.622 179.995,93.441 180.400,93.314 180.400 C 93.187 180.400,88.565 181.320,83.042 182.445 C 65.869 185.943,58.876 185.383,49.585 179.766 C 44.406 176.635,37.247 168.995,37.737 167.121 C 37.968 166.236,37.665 166.164,37.335 167.026 M85.200 168.925 C 85.200 168.994,85.785 169.579,86.500 170.225 L 87.800 171.400 86.625 170.100 C 85.530 168.888,85.200 168.616,85.200 168.925 M339.646 173.100 C 339.607 173.870,339.788 173.991,340.900 173.940 C 342.074 173.886,342.095 173.864,341.125 173.716 C 340.533 173.626,339.969 173.248,339.871 172.876 C 339.745 172.396,339.679 172.462,339.646 173.100 M347.505 172.683 C 348.002 172.779,348.722 172.775,349.105 172.675 C 349.487 172.575,349.080 172.496,348.200 172.501 C 347.320 172.505,347.007 172.587,347.505 172.683 M89.200 172.925 C 89.200 172.994,89.785 173.579,90.500 174.225 L 91.800 175.400 90.625 174.100 C 89.530 172.888,89.200 172.616,89.200 172.925 M354.509 178.800 C 354.509 179.790,354.587 180.195,354.682 179.700 C 354.778 179.205,354.778 178.395,354.682 177.900 C 354.587 177.405,354.509 177.810,354.509 178.800 M352.575 183.300 L 351.400 184.600 352.700 183.425 C 353.415 182.779,354.000 182.194,354.000 182.125 C 354.000 181.816,353.670 182.088,352.575 183.300 M108.629 190.629 C 107.805 191.452,107.684 191.117,110.255 195.104 C 130.235 226.082,162.875 247.107,199.497 252.587 C 204.814 253.382,207.365 253.378,208.171 252.571 C 209.067 251.676,208.952 251.338,208.034 252.169 C 207.342 252.796,206.892 252.819,203.334 252.411 C 166.581 248.202,132.998 227.651,111.935 196.479 C 108.529 191.438,108.351 190.955,109.700 190.412 C 110.344 190.154,110.409 190.043,109.929 190.025 C 109.559 190.011,108.974 190.283,108.629 190.629 M323.432 198.539 C 323.642 199.087,320.689 203.292,316.787 208.000 C 310.700 215.346,300.616 224.623,292.800 230.070 C 284.400 235.923,273.764 241.841,272.320 241.463 C 271.570 241.267,271.539 241.311,272.060 241.831 C 273.715 243.487,292.348 232.128,302.800 223.092 C 313.683 213.682,326.699 198.000,323.625 198.000 C 323.405 198.000,323.318 198.243,323.432 198.539 M290.093 200.000 C 290.093 200.770,290.175 201.085,290.276 200.700 C 290.376 200.315,290.376 199.685,290.276 199.300 C 290.175 198.915,290.093 199.230,290.093 200.000 M264.975 201.700 L 263.800 203.000 265.100 201.825 C 265.815 201.179,266.400 200.594,266.400 200.525 C 266.400 200.216,266.070 200.488,264.975 201.700 M275.855 203.000 C 276.780 204.579,276.800 204.603,276.800 204.111 C 276.800 203.879,276.429 203.264,275.976 202.744 L 275.153 201.800 275.855 203.000 M276.893 206.400 C 276.893 207.170,276.975 207.485,277.076 207.100 C 277.176 206.715,277.176 206.085,277.076 205.700 C 276.975 205.315,276.893 205.630,276.893 206.400 M267.526 226.312 C 268.116 226.924,268.676 227.374,268.768 227.311 C 268.999 227.155,267.135 225.200,266.756 225.200 C 266.588 225.200,266.935 225.701,267.526 226.312 M234.500 229.476 C 234.885 229.576,235.515 229.576,235.900 229.476 C 236.285 229.375,235.970 229.293,235.200 229.293 C 234.430 229.293,234.115 229.375,234.500 229.476 M224.700 232.626 C 223.655 233.170,222.800 233.705,222.800 233.814 C 222.800 233.993,226.760 232.123,227.167 231.752 C 227.662 231.301,226.361 231.762,224.700 232.626 M238.493 233.200 C 238.493 233.970,238.575 234.285,238.676 233.900 C 238.776 233.515,238.776 232.885,238.676 232.500 C 238.575 232.115,238.493 232.430,238.493 233.200 M237.776 235.240 C 237.626 235.481,236.941 235.924,236.252 236.224 C 235.557 236.526,235.302 236.776,235.678 236.784 C 236.307 236.799,238.935 234.841,238.324 234.813 C 238.172 234.806,237.925 234.998,237.776 235.240 M216.589 238.900 L 213.800 241.800 216.700 239.011 C 219.394 236.420,219.783 236.000,219.489 236.000 C 219.428 236.000,218.123 237.305,216.589 238.900 M221.785 244.100 L 219.800 246.200 221.900 244.215 C 223.055 243.123,224.000 242.178,224.000 242.115 C 224.000 241.817,223.629 242.149,221.785 244.100 M264.914 248.200 C 264.917 249.300,264.995 249.703,265.087 249.095 C 265.179 248.486,265.177 247.586,265.082 247.095 C 264.987 246.603,264.911 247.100,264.914 248.200 M264.493 252.000 C 264.493 252.770,264.575 253.085,264.676 252.700 C 264.776 252.315,264.776 251.685,264.676 251.300 C 264.575 250.915,264.493 251.230,264.493 252.000 M263.466 255.872 C 260.183 266.549,250.619 276.278,239.721 280.027 C 225.424 284.946,218.880 282.790,216.571 272.400 C 216.302 271.190,216.066 270.560,216.047 271.000 C 215.898 274.387,218.349 279.826,220.736 281.405 C 226.951 285.518,241.903 281.910,251.870 273.892 C 257.846 269.085,265.357 257.070,264.324 253.971 C 264.246 253.737,263.860 254.592,263.466 255.872 M214.493 262.400 C 214.493 263.170,214.575 263.485,214.676 263.100 C 214.776 262.715,214.776 262.085,214.676 261.700 C 214.575 261.315,214.493 261.630,214.493 262.400 M214.879 265.200 C 214.876 266.322,215.888 270.538,215.935 269.600 C 215.952 269.270,215.721 267.920,215.424 266.600 C 215.126 265.280,214.881 264.650,214.879 265.200 " stroke="none" fill="#bcbcbc" fill-rule="evenodd"></path><path id="path6" d="M204.000 102.442 C 177.579 105.421,153.621 116.947,135.700 135.303 C 132.054 139.037,131.418 140.000,132.600 140.000 C 132.930 140.000,133.200 139.727,133.200 139.393 C 133.200 138.567,140.916 131.014,145.674 127.183 C 191.278 90.462,258.675 95.685,297.670 138.962 C 299.831 141.361,301.600 143.602,301.600 143.942 C 301.600 144.407,301.714 144.446,302.059 144.101 C 302.745 143.415,301.885 142.314,295.681 135.932 C 271.786 111.351,237.163 98.703,204.000 102.442 M104.149 205.788 C 103.779 206.752,104.285 222.304,104.807 226.000 C 113.734 289.270,171.192 331.532,234.200 321.172 C 279.850 313.667,316.837 277.444,325.050 232.200 C 326.538 224.002,327.337 213.621,326.438 214.177 C 326.238 214.300,326.173 214.777,326.294 215.236 C 326.414 215.696,326.291 218.261,326.022 220.936 C 320.132 279.344,273.467 321.804,215.200 321.772 C 204.706 321.766,203.924 321.702,194.400 320.050 C 143.551 311.232,104.490 264.230,104.828 212.269 C 104.870 205.764,104.717 204.307,104.149 205.788 " stroke="none" fill="#37ccf4" fill-rule="evenodd"></path><path id="path7" d="M152.276 143.886 C 152.865 143.995,153.206 144.402,153.314 145.124 C 153.459 146.094,153.471 146.081,153.437 145.000 C 153.406 144.008,153.227 143.793,152.400 143.761 C 151.579 143.730,151.557 143.752,152.276 143.886 M152.631 148.600 C 151.464 154.853,145.819 163.135,139.828 167.384 C 134.392 171.240,130.921 172.510,120.088 174.605 C 116.947 175.212,114.456 175.790,114.555 175.888 C 114.773 176.107,126.574 173.798,129.572 172.950 C 138.253 170.494,146.366 163.597,150.711 154.979 C 152.065 152.293,153.352 148.253,153.096 147.492 C 153.004 147.221,152.795 147.720,152.631 148.600 M324.500 148.276 C 324.885 148.376,325.515 148.376,325.900 148.276 C 326.285 148.175,325.970 148.093,325.200 148.093 C 324.430 148.093,324.115 148.175,324.500 148.276 M113.785 157.300 L 111.800 159.400 113.900 157.415 C 115.055 156.323,116.000 155.378,116.000 155.315 C 116.000 155.017,115.629 155.349,113.785 157.300 M60.300 162.282 C 60.795 162.378,61.605 162.378,62.100 162.282 C 62.595 162.187,62.190 162.109,61.200 162.109 C 60.210 162.109,59.805 162.187,60.300 162.282 M66.300 162.282 C 66.795 162.378,67.605 162.378,68.100 162.282 C 68.595 162.187,68.190 162.109,67.200 162.109 C 66.210 162.109,65.805 162.187,66.300 162.282 M79.600 165.779 C 79.600 165.889,80.140 166.259,80.800 166.600 C 81.460 166.941,82.000 167.131,82.000 167.021 C 82.000 166.911,81.460 166.541,80.800 166.200 C 80.140 165.859,79.600 165.669,79.600 165.779 M37.736 167.022 C 37.073 168.750,44.386 176.634,49.531 179.738 C 53.097 181.889,58.444 183.892,61.443 184.201 C 63.086 184.371,62.956 184.302,60.628 183.775 C 52.120 181.846,44.700 177.001,39.765 170.149 C 37.899 167.558,37.693 166.991,38.500 166.665 C 38.892 166.507,38.889 166.456,38.487 166.432 C 38.206 166.414,37.867 166.680,37.736 167.022 M339.327 173.400 C 339.382 173.943,339.728 174.221,340.404 174.266 C 341.239 174.320,341.258 174.300,340.525 174.141 C 340.043 174.036,339.558 173.647,339.448 173.275 C 339.302 172.789,339.269 172.824,339.327 173.400 M111.200 176.400 L 110.200 176.720 111.200 176.720 C 111.750 176.720,112.650 176.576,113.200 176.400 L 114.200 176.080 113.200 176.080 C 112.650 176.080,111.750 176.224,111.200 176.400 M106.844 177.233 C 105.878 177.422,104.888 177.466,104.644 177.330 C 104.331 177.156,104.324 177.218,104.621 177.542 C 105.007 177.964,109.434 177.485,109.967 176.963 C 110.213 176.722,108.839 176.841,106.844 177.233 M92.600 179.995 C 92.160 180.160,88.306 180.985,84.035 181.826 C 79.765 182.668,76.452 183.417,76.675 183.492 C 77.107 183.636,93.278 180.455,93.564 180.170 C 93.924 179.809,93.363 179.707,92.600 179.995 M353.516 181.513 L 352.832 183.000 353.616 182.056 C 354.047 181.536,354.400 180.861,354.400 180.556 C 354.400 179.733,354.270 179.873,353.516 181.513 M351.000 184.027 C 350.340 184.450,350.005 184.797,350.256 184.798 C 350.506 184.799,351.136 184.446,351.656 184.013 C 352.845 183.023,352.559 183.029,351.000 184.027 M73.881 183.852 C 73.742 183.991,71.327 184.247,68.514 184.422 L 63.400 184.738 68.600 184.592 C 73.262 184.460,78.227 183.736,75.167 183.634 C 74.598 183.615,74.020 183.714,73.881 183.852 M108.938 191.018 C 108.183 192.986,120.822 209.036,130.600 218.525 C 148.624 236.017,179.414 250.493,202.200 252.186 C 204.175 252.333,203.539 252.164,200.044 251.612 C 171.112 247.045,146.800 234.645,126.972 214.344 C 119.417 206.609,108.771 192.496,109.350 190.985 C 109.474 190.663,109.485 190.400,109.375 190.400 C 109.265 190.400,109.068 190.678,108.938 191.018 M290.801 197.398 C 290.286 197.948,289.939 198.464,290.032 198.546 C 290.124 198.628,290.619 198.178,291.130 197.547 C 292.276 196.135,292.074 196.044,290.801 197.398 M322.500 198.276 C 323.552 198.551,323.440 198.785,320.248 202.976 C 309.310 217.342,295.880 228.882,279.800 237.732 C 273.912 240.973,272.467 241.527,271.927 240.754 C 271.606 240.296,271.568 240.304,271.703 240.800 C 272.019 241.961,273.261 241.638,277.873 239.195 C 293.817 230.749,307.787 219.297,318.403 205.972 C 323.694 199.330,324.423 197.913,322.476 198.046 C 321.867 198.088,321.869 198.111,322.500 198.276 M269.305 199.487 C 269.914 199.579,270.814 199.577,271.305 199.482 C 271.797 199.387,271.300 199.311,270.200 199.314 C 269.100 199.317,268.697 199.395,269.305 199.487 M273.000 200.065 C 273.440 200.307,274.348 200.977,275.018 201.553 C 275.696 202.136,275.570 201.935,274.733 201.100 C 273.907 200.275,272.999 199.605,272.715 199.612 C 272.432 199.619,272.560 199.823,273.000 200.065 M264.441 201.814 C 263.759 202.592,263.205 203.447,263.212 203.714 C 263.219 203.981,263.423 203.840,263.666 203.400 C 263.908 202.960,264.567 202.105,265.128 201.500 C 265.690 200.895,266.045 200.400,265.916 200.400 C 265.788 200.400,265.124 201.036,264.441 201.814 M290.000 201.464 C 290.000 201.682,290.495 202.297,291.100 202.830 L 292.200 203.800 291.200 202.600 C 290.650 201.940,290.155 201.325,290.100 201.233 C 290.045 201.142,290.000 201.245,290.000 201.464 M293.105 203.883 C 293.602 203.979,294.322 203.975,294.705 203.875 C 295.087 203.775,294.680 203.696,293.800 203.701 C 292.920 203.705,292.607 203.787,293.105 203.883 M263.200 209.193 C 263.200 209.475,263.986 210.492,264.947 211.453 C 265.908 212.414,266.925 213.200,267.207 213.200 C 267.488 213.200,267.111 212.791,266.369 212.290 C 265.626 211.790,264.610 210.774,264.110 210.031 C 263.609 209.289,263.200 208.912,263.200 209.193 M261.293 228.800 C 261.293 229.570,261.375 229.885,261.476 229.500 C 261.576 229.115,261.576 228.485,261.476 228.100 C 261.375 227.715,261.293 228.030,261.293 228.800 M216.388 238.700 L 213.800 241.400 216.500 238.812 C 217.985 237.388,219.200 236.173,219.200 236.112 C 219.200 235.817,218.793 236.192,216.388 238.700 M221.986 244.300 L 219.800 246.600 222.100 244.414 C 224.237 242.382,224.583 242.000,224.286 242.000 C 224.224 242.000,223.189 243.035,221.986 244.300 M264.493 249.600 C 264.493 250.370,264.575 250.685,264.676 250.300 C 264.776 249.915,264.776 249.285,264.676 248.900 C 264.575 248.515,264.493 248.830,264.493 249.600 M208.098 251.592 C 207.838 252.007,207.035 252.420,206.313 252.510 L 205.000 252.672 206.238 252.736 C 207.369 252.794,209.244 251.510,208.749 251.016 C 208.650 250.917,208.357 251.176,208.098 251.592 M263.666 253.848 C 261.174 264.835,251.059 275.726,239.728 279.625 C 228.272 283.566,220.003 282.480,218.199 276.796 C 218.049 276.325,217.840 276.027,217.734 276.133 C 217.054 276.813,220.371 280.592,222.658 281.744 C 227.526 284.194,241.400 280.694,249.400 274.996 C 256.622 269.853,265.229 256.688,264.331 252.158 C 264.259 251.794,263.960 252.554,263.666 253.848 M214.493 260.000 C 214.493 260.770,214.575 261.085,214.676 260.700 C 214.776 260.315,214.776 259.685,214.676 259.300 C 214.575 258.915,214.493 259.230,214.493 260.000 M215.687 267.400 C 215.691 267.840,215.832 268.740,216.000 269.400 C 216.274 270.478,216.306 270.498,216.313 269.600 C 216.317 269.050,216.176 268.150,216.000 267.600 C 215.749 266.816,215.681 266.773,215.687 267.400 M216.659 272.400 C 216.793 273.390,217.056 274.560,217.245 275.000 C 217.660 275.970,217.238 273.093,216.746 271.600 C 216.529 270.942,216.500 271.216,216.659 272.400 " stroke="none" fill="#d0d0d1" fill-rule="evenodd"></path><path id="path8" d="M129.200 139.854 L 127.400 140.404 128.965 140.217 C 129.826 140.113,130.717 139.843,130.945 139.615 C 131.173 139.387,131.279 139.224,131.180 139.252 C 131.081 139.281,130.190 139.552,129.200 139.854 M140.501 146.201 C 122.833 149.805,118.381 151.929,111.779 159.905 C 107.936 164.546,103.297 175.857,104.671 177.231 C 105.070 177.630,124.527 173.970,129.576 172.547 C 140.236 169.541,149.769 159.753,152.564 148.942 C 154.070 143.122,154.792 143.286,140.501 146.201 M152.633 146.100 C 150.865 157.270,141.783 167.753,130.513 171.630 C 127.634 172.621,106.139 176.939,105.435 176.669 C 104.097 176.155,107.248 167.019,110.291 162.586 C 116.622 153.365,122.036 150.482,140.000 146.764 C 153.827 143.903,152.974 143.948,152.633 146.100 M321.800 148.296 C 320.652 148.434,270.992 158.236,265.600 159.389 C 264.170 159.695,233.120 165.908,196.600 173.196 C 160.080 180.484,125.544 187.378,119.853 188.514 C 113.699 189.743,109.429 190.781,109.316 191.076 C 109.211 191.348,110.482 193.602,112.140 196.085 C 132.856 227.115,165.606 247.243,203.117 252.001 C 207.820 252.597,207.636 252.695,209.561 248.587 C 213.877 239.376,221.160 232.940,230.542 230.046 C 235.449 228.532,237.892 229.050,238.798 231.795 C 239.750 234.680,238.594 236.050,234.045 237.430 C 223.322 240.681,214.800 250.770,214.800 260.211 C 214.800 262.502,217.571 275.576,218.396 277.181 C 220.826 281.901,224.454 283.002,232.345 281.411 C 248.262 278.202,258.736 269.416,263.172 255.554 C 265.094 249.548,265.031 247.816,262.426 235.062 C 260.771 226.957,261.339 224.800,265.128 224.800 C 268.347 224.800,268.855 225.710,270.592 234.597 C 271.950 241.546,271.860 241.319,273.138 241.013 C 276.681 240.164,291.443 230.985,299.000 224.932 C 307.831 217.859,324.313 199.779,323.066 198.533 C 322.927 198.393,316.375 199.567,308.506 201.140 C 300.638 202.713,293.798 204.000,293.306 204.000 C 291.644 204.000,289.818 201.906,289.818 200.000 C 289.818 196.496,288.575 196.878,321.024 190.423 C 352.162 184.228,352.242 184.206,353.600 181.400 C 356.371 175.676,352.048 172.104,344.187 173.621 C 339.133 174.596,338.848 174.476,339.747 171.736 C 343.865 159.174,334.376 146.780,321.800 148.296 M330.510 150.296 C 339.041 154.297,342.174 162.279,339.149 172.298 C 338.368 174.883,338.815 175.106,343.132 174.278 C 349.640 173.030,352.088 173.638,353.360 176.816 C 354.161 178.817,354.159 179.343,353.351 181.047 C 352.064 183.760,352.465 183.649,320.998 189.957 C 288.844 196.403,289.919 196.094,289.360 199.071 C 288.872 201.674,291.042 204.399,293.600 204.396 C 294.150 204.395,300.435 203.226,307.567 201.797 C 320.561 199.195,322.000 198.963,322.000 199.475 C 322.000 200.976,310.054 214.479,303.856 219.984 C 294.338 228.439,277.032 239.859,273.341 240.121 C 272.114 240.208,272.442 241.246,270.165 230.074 C 269.286 225.764,268.099 224.400,265.224 224.400 C 260.667 224.400,260.214 226.375,262.333 237.000 C 265.011 250.420,264.078 255.992,257.579 265.393 C 248.957 277.865,228.076 285.710,220.712 279.245 C 218.095 276.947,214.629 262.504,215.577 257.840 C 217.568 248.036,224.871 240.269,234.425 237.793 C 239.241 236.546,240.623 234.477,238.969 230.991 C 235.182 223.010,213.927 235.809,208.736 249.197 C 207.633 252.041,207.738 251.987,204.200 251.541 C 173.717 247.703,147.749 234.962,127.186 213.758 C 120.478 206.840,110.000 193.206,110.000 191.395 C 110.000 191.136,129.813 187.005,158.700 181.239 C 185.485 175.894,219.910 169.015,235.200 165.955 C 250.490 162.894,274.340 158.132,288.200 155.374 C 302.060 152.616,314.930 150.014,316.800 149.592 C 322.071 148.404,327.017 148.658,330.510 150.296 M60.398 162.410 C 57.845 162.709,42.447 165.681,39.500 166.443 C 37.602 166.934,37.619 167.170,39.765 170.149 C 49.295 183.379,60.998 186.585,83.163 182.038 C 94.605 179.690,94.193 179.923,92.203 176.925 C 86.496 168.329,72.950 161.288,63.600 162.056 C 63.270 162.083,61.829 162.242,60.398 162.410 M71.921 163.630 C 79.842 165.454,89.023 171.849,92.205 177.758 C 93.185 179.577,94.119 179.216,82.200 181.621 C 60.882 185.924,48.379 182.285,39.804 169.284 C 38.303 167.008,38.005 167.150,48.800 164.993 C 62.258 162.304,65.368 162.121,71.921 163.630 M267.258 199.228 C 261.227 201.643,260.575 210.189,266.199 213.104 C 273.272 216.771,280.371 209.672,276.704 202.599 C 275.090 199.484,270.611 197.885,267.258 199.228 M272.674 199.625 C 277.546 201.466,278.780 208.038,274.936 211.675 C 269.409 216.903,260.520 210.869,263.227 203.726 C 264.514 200.328,269.177 198.304,272.674 199.625 M100.933 201.817 C 100.933 202.096,101.150 202.241,101.415 202.139 C 101.954 201.932,103.200 203.018,103.200 203.695 C 103.200 203.936,103.314 204.019,103.454 203.879 C 103.594 203.739,103.426 203.193,103.080 202.666 C 102.375 201.591,100.933 201.020,100.933 201.817 M103.293 206.400 C 103.293 207.170,103.375 207.485,103.476 207.100 C 103.576 206.715,103.576 206.085,103.476 205.700 C 103.375 205.315,103.293 205.630,103.293 206.400 M328.489 211.423 C 328.000 211.765,327.612 212.350,327.627 212.723 C 327.648 213.256,327.742 213.218,328.069 212.542 C 328.298 212.071,328.871 211.498,329.342 211.269 C 329.814 211.041,330.015 210.842,329.789 210.827 C 329.563 210.812,328.978 211.080,328.489 211.423 M327.309 218.800 C 327.309 219.790,327.387 220.195,327.482 219.700 C 327.578 219.205,327.578 218.395,327.482 217.900 C 327.387 217.405,327.309 217.810,327.309 218.800 " stroke="none" fill="#dcdcdc" fill-rule="evenodd"></path></g></svg>